<svg width="24" height="24" viewBox="0 0 24 24" fill="none" xmlns="http://www.w3.org/2000/svg">
<path d="M3.48063 6.08428L3.11592 5.42893L3.11592 5.42893L3.48063 6.08428ZM7.58987 3.79744L7.22516 3.14209L7.22516 3.14209L7.58987 3.79744ZM16.4101 3.79744L16.0454 4.45279L16.0454 4.45279L16.4101 3.79744ZM20.5194 6.08428L20.8841 5.42894L20.8841 5.42893L20.5194 6.08428ZM21.9646 9.18894L22.6895 9.38151L22.6895 9.3814L21.9646 9.18894ZM2.03542 9.18894L1.31056 9.3815L1.31056 9.38151L2.03542 9.18894ZM11.9959 6.25C11.5817 6.25 11.2459 6.58579 11.2459 7C11.2459 7.41421 11.5817 7.75 11.9959 7.75V6.25ZM12.0049 7.75C12.4191 7.75 12.7549 7.41421 12.7549 7C12.7549 6.58579 12.4191 6.25 12.0049 6.25V7.75ZM2.75 8.56907C2.75 8.07465 2.84854 7.73553 3.00624 7.47702C3.16559 7.2158 3.4235 6.97439 3.84534 6.73963L3.11592 5.42893C2.53951 5.74971 2.0571 6.1526 1.7257 6.69585C1.39265 7.2418 1.25 7.86731 1.25 8.56907H2.75ZM3.84534 6.73963L7.95458 4.45279L7.22516 3.14209L3.11592 5.42893L3.84534 6.73963ZM7.95458 4.45279C9.04359 3.84675 9.81481 3.41847 10.46 3.13666C11.0903 2.86135 11.5487 2.75 12 2.75V1.25C11.271 1.25 10.601 1.43823 9.85957 1.76207C9.13307 2.0794 8.28938 2.54984 7.22516 3.14209L7.95458 4.45279ZM12 2.75C12.4513 2.75 12.9097 2.86135 13.54 3.13666C14.1852 3.41847 14.9564 3.84675 16.0454 4.45279L16.7748 3.14209C15.7106 2.54984 14.8669 2.0794 14.1404 1.76207C13.399 1.43823 12.729 1.25 12 1.25V2.75ZM16.0454 4.45279L20.1547 6.73963L20.8841 5.42893L16.7748 3.14209L16.0454 4.45279ZM20.1547 6.73962C20.5765 6.97438 20.8344 7.2158 20.9938 7.47702C21.1515 7.73554 21.25 8.07466 21.25 8.56907H22.75C22.75 7.86731 22.6073 7.24181 22.2743 6.69585C21.9429 6.15261 21.4605 5.74972 20.8841 5.42894L20.1547 6.73962ZM21.25 8.56907C21.25 8.73799 21.2498 8.83986 21.2463 8.91673C21.243 8.98956 21.2379 9.00348 21.2397 8.99648L22.6895 9.3814C22.7563 9.12965 22.75 8.84567 22.75 8.56907H21.25ZM21.2397 8.99637C21.22 9.07071 21.1962 9.10314 21.1838 9.11733C21.1706 9.13245 21.1482 9.15171 21.1025 9.17207C20.9928 9.22097 20.8115 9.25 20.5307 9.25V10.75C20.8629 10.75 21.3055 10.7238 21.7129 10.5423C22.1652 10.3408 22.5345 9.96482 22.6895 9.38151L21.2397 8.99637ZM20.5307 9.25H3.46928V10.75H20.5307V9.25ZM3.46928 9.25C3.18851 9.25 3.00723 9.22097 2.89748 9.17207C2.85178 9.15171 2.82945 9.13246 2.81622 9.11733C2.80381 9.10315 2.78003 9.07071 2.76028 8.99637L1.31056 9.38151C1.46552 9.96479 1.83479 10.3408 2.28704 10.5422C2.69444 10.7238 3.13704 10.75 3.46928 10.75V9.25ZM2.76028 8.99638C2.76215 9.00341 2.75696 8.98952 2.75366 8.91671C2.75018 8.83985 2.75 8.738 2.75 8.56907H1.25C1.25 8.84565 1.24367 9.1297 1.31056 9.3815L2.76028 8.99638ZM11.9959 7.75H12.0049V6.25H11.9959V7.75ZM3.25 10V18.5H4.75V10H3.25ZM7.25 10V18.5H8.75V10H7.25ZM15.25 10V18.5H16.75V10H15.25ZM19.25 10V18.5H20.75V10H19.25ZM19 17.75H5V19.25H19V17.75ZM5 17.75C2.92894 17.75 1.25 19.4289 1.25 21.5H2.75C2.75 20.2573 3.75736 19.25 5 19.25V17.75ZM1.25 21.5C1.25 22.1903 1.80961 22.75 2.5 22.75V21.25C2.63811 21.25 2.75 21.3619 2.75 21.5H1.25ZM2.5 22.75H21.5V21.25H2.5V22.75ZM21.5 22.75C22.1903 22.75 22.75 22.1903 22.75 21.5H21.25C21.25 21.3619 21.3619 21.25 21.5 21.25V22.75ZM22.75 21.5C22.75 19.4289 21.0711 17.75 19 17.75V19.25C20.2427 19.25 21.25 20.2573 21.25 21.5H22.75Z" fill="black"/>
</svg>
