<svg width="24" height="24" viewBox="0 0 24 24" fill="none" xmlns="http://www.w3.org/2000/svg">
<path d="M7.00224 6.75049C7.41646 6.74925 7.75123 6.41245 7.74999 5.99824C7.74875 5.58403 7.41196 5.24925 6.99775 5.25049L7.00224 6.75049ZM4.54873 6.26634L4.25846 5.57479L4.25846 5.57479L4.54873 6.26634ZM2.76811 7.96158L3.44349 8.2877L3.44349 8.2877L2.76811 7.96158ZM2.31796 10.9902L3.06653 11.0364L3.06653 11.0364L2.31796 10.9902ZM2.16312 13.5009L2.91169 13.5471H2.91169L2.16312 13.5009ZM2.96369 20.7388L2.41365 21.2487L2.41367 21.2487L2.96369 20.7388ZM21.0363 20.7388L20.4863 20.2289L20.4863 20.2289L21.0363 20.7388ZM21.8369 13.5009L22.5855 13.4547L22.5855 13.4547L21.8369 13.5009ZM21.682 10.9902L20.9334 11.0364L20.9334 11.0364L21.682 10.9902ZM21.2319 7.96158L21.9073 7.63549L21.9073 7.63546L21.2319 7.96158ZM19.4513 6.26634L19.7416 5.57479L19.7416 5.57479L19.4513 6.26634ZM17.0022 5.25049C16.588 5.24925 16.2512 5.58403 16.25 5.99824C16.2488 6.41245 16.5835 6.74925 16.9977 6.75049L17.0022 5.25049ZM16.3036 7.27854C16.4575 7.66312 16.8939 7.85019 17.2785 7.69636C17.6631 7.54253 17.8502 7.10605 17.6964 6.72146L16.3036 7.27854ZM16.1142 4.78543L16.8106 4.50689L16.8106 4.50688L16.1142 4.78543ZM14.4166 2.25955L14.0838 2.93167L14.0838 2.93169L14.4166 2.25955ZM9.58335 2.25955L9.25058 1.58741L9.25058 1.58741L9.58335 2.25955ZM7.88583 4.78543L8.58218 5.06397L8.58219 5.06397L7.88583 4.78543ZM6.30364 6.72146C6.1498 7.10604 6.33687 7.54252 6.72145 7.69636C7.10604 7.85019 7.54252 7.66313 7.69635 7.27854L6.30364 6.72146ZM11.9998 5.25C11.5856 5.25 11.2498 5.58579 11.2498 6C11.2498 6.41421 11.5856 6.75 11.9998 6.75V5.25ZM12.0088 6.75C12.423 6.75 12.7588 6.41421 12.7588 6C12.7588 5.58579 12.423 5.25 12.0088 5.25V6.75ZM6.99775 5.25049C5.8149 5.25404 4.97789 5.27282 4.25846 5.57479L4.83899 6.95789C5.22976 6.79388 5.74381 6.75426 7.00224 6.75049L6.99775 5.25049ZM4.25846 5.57479C3.31066 5.97261 2.54137 6.70632 2.09272 7.63546L3.44349 8.2877C3.73464 7.68473 4.23173 7.21278 4.83899 6.95789L4.25846 5.57479ZM2.09272 7.63546C1.89255 8.05001 1.79062 8.49536 1.72316 9.01254C1.65664 9.5225 1.61815 10.1531 1.56938 10.944L3.06653 11.0364C3.11657 10.2251 3.15219 9.65403 3.21056 9.20656C3.26799 8.7663 3.34173 8.49844 3.44349 8.2877L2.09272 7.63546ZM1.56938 10.944L1.41454 13.4547L2.91169 13.5471L3.06653 11.0364L1.56938 10.944ZM1.41454 13.4547C1.293 15.4254 1.19552 16.9796 1.28483 18.1959C1.37565 19.4329 1.66569 20.4418 2.41365 21.2487L3.51372 20.2289C3.09252 19.7745 2.8594 19.1567 2.7808 18.0861C2.70068 16.9949 2.7875 15.5608 2.91169 13.5471L1.41454 13.4547ZM2.41367 21.2487C3.16311 22.0571 4.14295 22.4155 5.36042 22.5852C6.55524 22.7517 8.09437 22.75 10.0419 22.75V21.25C8.05004 21.25 6.63465 21.2483 5.5675 21.0995C4.523 20.9539 3.93342 20.6817 3.51371 20.2289L2.41367 21.2487ZM10.0419 22.75H13.9581V21.25H10.0419V22.75ZM13.9581 22.75C15.9056 22.75 17.4448 22.7517 18.6396 22.5852C19.8571 22.4155 20.8369 22.0571 21.5863 21.2487L20.4863 20.2289C20.0666 20.6817 19.477 20.9539 18.4325 21.0995C17.3654 21.2483 15.95 21.25 13.9581 21.25V22.75ZM21.5863 21.2487C22.3343 20.4418 22.6243 19.4329 22.7152 18.1959C22.8045 16.9796 22.707 15.4254 22.5855 13.4547L21.0883 13.5471C21.2125 15.5608 21.2993 16.9949 21.2192 18.0861C21.1406 19.1567 20.9075 19.7745 20.4863 20.2289L21.5863 21.2487ZM22.5855 13.4547L22.4306 10.944L20.9334 11.0364L21.0883 13.5471L22.5855 13.4547ZM22.4306 10.944C22.3818 10.1531 22.3433 9.52251 22.2768 9.01255C22.2094 8.49538 22.1074 8.05003 21.9073 7.63549L20.5565 8.28767C20.6582 8.49842 20.732 8.76628 20.7894 9.20654C20.8478 9.65402 20.8834 10.2251 20.9334 11.0364L22.4306 10.944ZM21.9073 7.63546C21.4586 6.70631 20.6893 5.97261 19.7416 5.57479L19.161 6.95789C19.7683 7.21277 20.2654 7.68473 20.5565 8.2877L21.9073 7.63546ZM19.7416 5.57479C19.0221 5.27282 18.185 5.25404 17.0022 5.25049L16.9977 6.75049C18.2561 6.75426 18.7703 6.79388 19.161 6.95789L19.7416 5.57479ZM17.6964 6.72146L16.8106 4.50689L15.4178 5.06397L16.3036 7.27854L17.6964 6.72146ZM16.8106 4.50688C16.6368 4.07248 16.4301 3.48706 16.1443 2.97899C15.8461 2.44875 15.4213 1.92007 14.7493 1.58741L14.0838 2.93169C14.3947 3.08558 14.6276 3.34211 14.8369 3.7143C15.0587 4.10866 15.2094 4.54291 15.4178 5.06398L16.8106 4.50688ZM14.7494 1.58743C14.3722 1.40068 13.9812 1.32201 13.5485 1.28515C13.1284 1.24937 12.6182 1.25 12 1.25V2.75C12.6434 2.75 13.0794 2.75063 13.4212 2.77974C13.7503 2.80777 13.9368 2.85887 14.0838 2.93167L14.7494 1.58743ZM12 1.25C11.3818 1.25 10.8716 1.24937 10.4515 1.28515C10.0188 1.32201 9.62775 1.40068 9.25058 1.58741L9.91611 2.93169C10.0632 2.85887 10.2497 2.80777 10.5788 2.77974C10.9206 2.75063 11.3566 2.75 12 2.75V1.25ZM9.25058 1.58741C8.57865 1.92008 8.15387 2.44876 7.85566 2.979C7.56992 3.48708 7.36323 4.07248 7.18947 4.50689L8.58219 5.06397C8.79061 4.54291 8.9413 4.10865 9.16308 3.71429C9.37241 3.34209 9.6053 3.08557 9.91611 2.93169L9.25058 1.58741ZM7.18947 4.50689L6.30364 6.72146L7.69635 7.27854L8.58218 5.06397L7.18947 4.50689ZM14.75 14C14.75 15.5188 13.5188 16.75 12 16.75V18.25C14.3472 18.25 16.25 16.3472 16.25 14H14.75ZM12 16.75C10.4812 16.75 9.25 15.5188 9.25 14H7.75C7.75 16.3472 9.65278 18.25 12 18.25V16.75ZM9.25 14C9.25 12.4812 10.4812 11.25 12 11.25V9.75C9.65278 9.75 7.75 11.6528 7.75 14H9.25ZM12 11.25C13.5188 11.25 14.75 12.4812 14.75 14H16.25C16.25 11.6528 14.3472 9.75 12 9.75V11.25ZM11.9998 6.75H12.0088V5.25H11.9998V6.75Z" fill="black"/>
</svg>
