<svg width="97" height="96" viewBox="0 0 97 96" fill="none" xmlns="http://www.w3.org/2000/svg">
<rect x="0.5" width="96" height="96" rx="48" fill="#FFD13A"/>
<path d="M67.3954 40.4C67.5 42.5003 67.5 44.9988 67.5 48C67.5 56.9566 67.5 61.435 64.7176 64.2176C61.935 67 57.4566 67 48.5 67C39.5433 67 35.065 67 32.2825 64.2176C29.5 61.435 29.5 56.9566 29.5 48C29.5 39.0433 29.5 34.565 32.2825 31.7825C35.065 29 39.5433 29 48.5 29C50.6438 29 52.5312 29 54.2 29.0382" stroke="#040C21" stroke-width="4" stroke-linecap="round"/>
<path d="M40.5 47C40.5 47 43.5 47 47.5 54C47.5 54 57.6176 35.6667 67.5 32" stroke="#040C21" stroke-width="4" stroke-linecap="round" stroke-linejoin="round"/>
</svg>
