<svg width="24" height="24" viewBox="0 0 24 24" fill="none" xmlns="http://www.w3.org/2000/svg">
<path d="M14.7753 3.17333C15.1704 3.29746 15.5914 3.07773 15.7155 2.68255C15.8397 2.28737 15.6199 1.86639 15.2247 1.74227L14.7753 3.17333ZM22.2577 8.7753C22.1336 8.38011 21.7127 8.16035 21.3175 8.28445C20.9223 8.40855 20.7026 8.82952 20.8267 9.2247L22.2577 8.7753ZM9.03033 8.96967C8.73744 8.67678 8.26256 8.67678 7.96967 8.96967C7.67678 9.26256 7.67678 9.73744 7.96967 10.0303L9.03033 8.96967ZM12 13L11.4697 13.5303C11.6152 13.6758 11.814 13.7551 12.0197 13.7497C12.2254 13.7443 12.4198 13.6547 12.5575 13.5017L12 13ZM21.5577 3.50173C21.8348 3.19385 21.8098 2.71963 21.5019 2.44253C21.194 2.16544 20.7198 2.19039 20.4427 2.49827L21.5577 3.50173ZM15.2247 1.74227C14.2059 1.42223 13.1223 1.25 12 1.25V2.75C12.9681 2.75 13.9001 2.89847 14.7753 3.17333L15.2247 1.74227ZM12 1.25C6.06294 1.25 1.25 6.06294 1.25 12H2.75C2.75 6.89136 6.89136 2.75 12 2.75V1.25ZM1.25 12C1.25 17.937 6.06293 22.75 12 22.75V21.25C6.89137 21.25 2.75 17.1086 2.75 12H1.25ZM12 22.75C17.937 22.75 22.75 17.937 22.75 12H21.25C21.25 17.1086 17.1086 21.25 12 21.25V22.75ZM22.75 12C22.75 10.8777 22.5777 9.79418 22.2577 8.7753L20.8267 9.2247C21.1015 10.0999 21.25 11.0319 21.25 12H22.75ZM7.96967 10.0303L11.4697 13.5303L12.5303 12.4697L9.03033 8.96967L7.96967 10.0303ZM12.5575 13.5017L21.5577 3.50173L20.4427 2.49827L11.4425 12.4983L12.5575 13.5017Z" fill="black"/>
</svg>
