<svg width="24" height="24" viewBox="0 0 24 24" fill="none" xmlns="http://www.w3.org/2000/svg">
<path d="M16.5351 11.0255C16.8253 10.73 16.821 10.2551 16.5255 9.96488C16.23 9.67465 15.7551 9.67897 15.4649 9.97451L16.5351 11.0255ZM8.53513 9.97452C8.24492 9.67897 7.77006 9.67465 7.47452 9.96487C7.17897 10.2551 7.17465 10.7299 7.46487 11.0255L8.53513 9.97452ZM21.25 12C21.25 17.1086 17.1086 21.25 12 21.25V22.75C17.9371 22.75 22.75 17.9371 22.75 12H21.25ZM12 21.25C6.89137 21.25 2.75 17.1086 2.75 12H1.25C1.25 17.9371 6.06294 22.75 12 22.75V21.25ZM2.75 12C2.75 6.89137 6.89137 2.75 12 2.75V1.25C6.06294 1.25 1.25 6.06294 1.25 12H2.75ZM12 2.75C17.1086 2.75 21.25 6.89137 21.25 12H22.75C22.75 6.06294 17.9371 1.25 12 1.25V2.75ZM16 10.5C15.4649 9.97451 15.4649 9.97447 15.4649 9.97445C15.4649 9.97446 15.4649 9.97444 15.4649 9.97446C15.4649 9.97449 15.4648 9.97456 15.4647 9.97468C15.4645 9.97492 15.4641 9.97533 15.4635 9.97592C15.4623 9.97711 15.4604 9.979 15.4579 9.98158C15.4528 9.98673 15.445 9.99461 15.4347 10.005C15.4139 10.0259 15.383 10.0569 15.3429 10.0967C15.2628 10.1763 15.1465 10.2906 15.0035 10.428C14.7169 10.7035 14.3259 11.0688 13.905 11.4324C13.481 11.7987 13.0413 12.1503 12.6554 12.4061C12.4621 12.5342 12.2972 12.6281 12.1655 12.6877C12.0206 12.7532 11.9743 12.75 12 12.75V14.25C12.2892 14.25 12.5656 14.153 12.7835 14.0545C13.0146 13.95 13.2529 13.8096 13.484 13.6564C13.9468 13.3497 14.4413 12.9513 14.8855 12.5676C15.3328 12.1812 15.7443 11.7965 16.0429 11.5095C16.1926 11.3657 16.3147 11.2456 16.3998 11.1611C16.4424 11.1188 16.4757 11.0854 16.4987 11.0623C16.5101 11.0508 16.519 11.0418 16.5251 11.0356C16.5282 11.0325 16.5306 11.0301 16.5322 11.0284C16.5331 11.0276 16.5337 11.0269 16.5342 11.0264C16.5345 11.0262 16.5347 11.026 16.5348 11.0258C16.5349 11.0257 16.535 11.0257 16.535 11.0256C16.5351 11.0255 16.5351 11.0255 16 10.5ZM12 12.75C12.0257 12.75 11.9794 12.7532 11.8345 12.6877C11.7027 12.6281 11.5379 12.5342 11.3446 12.4061C10.9586 12.1503 10.519 11.7987 10.095 11.4324C9.67407 11.0688 9.28312 10.7035 8.99646 10.428C8.85347 10.2906 8.73722 10.1763 8.6571 10.0967C8.61705 10.0569 8.58608 10.0259 8.56535 10.005C8.55499 9.99462 8.54719 9.98674 8.5421 9.98159C8.53956 9.97901 8.53769 9.97712 8.53653 9.97593C8.53594 9.97534 8.53553 9.97492 8.5353 9.97469C8.53518 9.97457 8.53511 9.97449 8.53508 9.97447C8.53507 9.97445 8.53508 9.97446 8.53508 9.97446C8.5351 9.97448 8.53513 9.97452 8 10.5C7.46487 11.0255 7.46492 11.0255 7.46499 11.0256C7.46503 11.0256 7.46511 11.0257 7.46519 11.0258C7.46534 11.026 7.46553 11.0262 7.46577 11.0264C7.46626 11.0269 7.46692 11.0276 7.46775 11.0284C7.46942 11.0301 7.4718 11.0325 7.47486 11.0356C7.48099 11.0418 7.48986 11.0508 7.50133 11.0623C7.52427 11.0854 7.55762 11.1188 7.60018 11.1611C7.68528 11.2456 7.80741 11.3657 7.95707 11.5095C8.25572 11.7965 8.66712 12.1812 9.11444 12.5676C9.55866 12.9513 10.0532 13.3497 10.516 13.6564C10.7471 13.8096 10.9854 13.95 11.2165 14.0545C11.4344 14.153 11.7108 14.25 12 14.25V12.75Z" fill="black"/>
</svg>
