<svg width="16" height="16" viewBox="0 0 16 16" fill="none" xmlns="http://www.w3.org/2000/svg">
<path d="M14.7427 6.486L13.714 6C13.2156 7.11418 12.4056 8.0604 11.3816 8.72459C10.3575 9.38879 9.16323 9.74258 7.94267 9.74333C6.72211 9.74258 5.52781 9.38879 4.50379 8.72459C3.47976 8.0604 2.66972 7.11418 2.17134 6L1.14267 6.486C1.53209 7.32375 2.06399 8.08753 2.71467 8.74333L1.628 10.0573L2.51467 10.8L3.6 9.48667C4 9.77267 4.42867 10.0293 4.85734 10.2293L4.286 11.8293L5.37134 12.2293L5.94267 10.6293C6.40672 10.7726 6.88645 10.859 7.37134 10.8867V12.6H8.514V10.8867C8.99889 10.859 9.47862 10.7726 9.94267 10.6293L10.514 12.2293L11.6007 11.8293L11.0287 10.2293C11.486 10.0293 11.886 9.77267 12.286 9.48667L13.3713 10.8007L14.2573 10.058L13.1713 8.744C13.8287 8.08667 14.3713 7.34333 14.7427 6.486Z" fill="#163300"/>
</svg>
