<svg width="16" height="17" viewBox="0 0 16 17" fill="none" xmlns="http://www.w3.org/2000/svg">
<path fill-rule="evenodd" clipRule="evenodd" d="M1.714 9.3584L2.18933 9.67573L2.192 9.67173C2.21903 9.63139 2.24749 9.59204 2.27733 9.55373C2.34067 9.46973 2.43733 9.34573 2.56667 9.19573C2.91453 8.793 3.29858 8.42301 3.714 8.0904C4.72133 7.2844 6.17067 6.50107 8 6.50107C9.82933 6.50107 11.2787 7.2844 12.286 8.0904C12.7012 8.42304 13.085 8.79303 13.4327 9.19573C13.5647 9.34883 13.6899 9.50765 13.808 9.67173L13.8107 9.67573L14.286 9.3584C14.7613 9.04173 14.7613 9.04106 14.7607 9.04106L14.76 9.03973L14.7573 9.03573L14.7507 9.02573C14.7144 8.97223 14.6766 8.91977 14.6373 8.8684C14.5593 8.76507 14.4467 8.62173 14.2993 8.44973C13.9052 7.9935 13.4701 7.5744 12.9993 7.19773C11.8653 6.28973 10.1713 5.3584 8 5.3584C5.82933 5.3584 4.13533 6.28973 3 7.1984C2.52954 7.5749 2.09461 7.99377 1.70067 8.44973C1.54158 8.6348 1.39098 8.827 1.24933 9.02573L1.24267 9.03573L1.24 9.03906V9.0404L1.23933 9.04106L1.714 9.3584ZM8 11.0724C8.22509 11.0724 8.44797 11.0281 8.65592 10.9419C8.86387 10.8558 9.05282 10.7295 9.21198 10.5704C9.37114 10.4112 9.49739 10.2223 9.58353 10.0143C9.66967 9.80637 9.714 9.58348 9.714 9.3584C9.714 9.13331 9.66967 8.91043 9.58353 8.70248C9.49739 8.49453 9.37114 8.30558 9.21198 8.14642C9.05282 7.98726 8.86387 7.86101 8.65592 7.77487C8.44797 7.68873 8.22509 7.6444 8 7.6444C7.54533 7.6444 7.10928 7.82502 6.78778 8.14652C6.46628 8.46802 6.28567 8.90406 6.28567 9.35873C6.28567 9.8134 6.46628 10.2494 6.78778 10.5709C7.10928 10.8924 7.54533 11.0731 8 11.0731V11.0724Z" fill="#163300"/>
</svg>
