<svg width="123" height="33" viewBox="0 0 123 33" fill="none" xmlns="http://www.w3.org/2000/svg">
<path d="M27.2344 6.93003H27.261L27.4804 6.66406C27.394 6.7505 27.3142 6.84359 27.2344 6.93003Z" fill="black"/>
<path d="M31.9442 8.03917L27.9281 29.6489C27.6888 30.9388 26.4454 31.9827 25.1621 31.9827H2.44197C1.15204 31.9827 0.300946 30.9388 0.540315 29.6489L4.76252 6.93541C5.00189 5.64548 6.24528 4.60156 7.52856 4.60156H29.6104C28.879 5.23988 28.1741 5.91809 27.5092 6.62955L27.4826 6.65615L27.476 6.6628C27.3962 6.74924 27.3098 6.83567 27.23 6.92876H7.10302C7.09637 6.92876 7.09637 6.92876 7.09637 6.93541L2.86751 29.6489C2.86751 29.6555 2.86751 29.6555 2.86751 29.6555H25.5876C25.5876 29.6555 25.5943 29.6555 25.5943 29.6489L28.8657 12.0552L29.8364 10.7653L29.8431 10.752L31.399 8.67749C31.5785 8.46471 31.758 8.25194 31.9442 8.03917Z" fill="#14155E"/>
<path d="M27.4804 6.66406L27.261 6.93003H27.2344C27.3142 6.84359 27.394 6.7505 27.4804 6.66406Z" fill="black"/>
<path d="M29.1973 10.3008L29.1641 10.3473C29.1774 10.334 29.184 10.3141 29.1973 10.3008Z" fill="#14155E"/>
<path d="M29.1953 10.3008L29.1819 10.3812L29.1484 10.3611L29.1618 10.341C29.1752 10.3343 29.1819 10.3142 29.1953 10.3008Z" fill="#14155E"/>
<path d="M29.1618 10.3488L29.1484 10.3689L29.1819 10.389L29.1953 10.3086C29.1819 10.3153 29.1752 10.3354 29.1618 10.3488Z" fill="#14155E"/>
<path d="M40.7918 0.394531C38.8968 1.28552 37.0882 2.39592 35.4193 3.68586C34.269 4.57684 33.1852 5.55426 32.1811 6.60483C31.6891 7.11681 31.217 7.64874 30.7649 8.20062C30.7582 8.20727 30.7516 8.21392 30.7516 8.22057C30.6053 8.40009 30.459 8.57962 30.3127 8.7658C30.2529 8.84559 30.193 8.91873 30.1332 8.99852C29.9404 9.25118 29.7476 9.50385 29.568 9.76317C29.5082 9.84961 29.4417 9.93605 29.3818 10.0291C29.3619 10.0624 29.3353 10.089 29.3154 10.1222C29.2755 10.1821 29.2356 10.2353 29.1957 10.2951C29.1824 10.3084 29.1757 10.3217 29.1624 10.3416L29.1491 10.3616L21.0571 21.1066L19.0557 23.7862L18.9892 23.8793L17.6528 25.6613C17.174 25.9671 16.6221 26.1466 16.057 26.1466C15.8508 26.1466 15.658 26.1201 15.4785 26.0802C14.6141 25.8674 14.0223 25.1759 13.9359 24.2849L13.896 24.3314C12.7258 20.1824 10.1791 16.7381 6.64844 14.4774C10.6379 15.2953 13.9957 17.2634 16.4426 20.0427C16.549 20.1624 16.6554 20.2888 16.7551 20.4084C16.8549 20.5281 17.0543 20.5015 17.174 20.3619L25.6982 10.0491L25.7182 10.0225L28.0919 7.15006C28.0986 7.14341 28.1119 7.13011 28.1185 7.12346L28.3047 6.92399C29.076 6.11944 29.8938 5.36144 30.7449 4.65663C31.6559 3.89863 32.6133 3.20047 33.6107 2.56215C34.4352 2.03687 35.2796 1.55148 36.144 1.11264C37.6534 0.500918 39.2425 0.507567 40.7918 0.394531Z" fill="#FFD13A"/>
<path d="M36.467 23.8074L39.7317 6.26033C39.8115 5.84808 40.2038 5.51562 40.6161 5.51562H49.2799C51.2946 5.51562 52.7973 5.96777 53.788 6.8787C54.7787 7.78298 55.1311 8.99977 54.8519 10.5224C54.6191 11.7725 54.1338 12.7166 53.4023 13.3483C52.7441 13.9467 52.026 14.3523 51.2281 14.5718C50.5898 14.7446 49.7919 14.871 48.8477 14.9375C48.4554 14.9641 48.0897 15.2899 48.0165 15.6822C47.9434 16.0745 48.1894 16.4003 48.5751 16.4269C49.978 16.52 50.9754 16.7726 51.5738 17.1849C52.2653 17.657 52.6178 18.5878 52.6311 19.9842L52.5845 23.6811C52.5779 24.1399 52.1523 24.5521 51.6869 24.5521H48.8211C48.4487 24.5521 48.1828 24.2728 48.2027 23.9071L48.3822 20.3366C48.4221 19.2328 48.216 18.4482 47.7572 17.9961C47.2984 17.5439 46.4673 17.3178 45.2705 17.3178H42.5643C42.152 17.3178 41.7531 17.6503 41.6799 18.0626L40.6028 23.8074C40.523 24.2197 40.1307 24.5521 39.7184 24.5521H37.0787C36.6598 24.5521 36.3872 24.2197 36.467 23.8074ZM42.5709 13.2286C42.4911 13.6409 42.7637 13.9733 43.176 13.9733H46.9194C47.8437 13.9733 48.615 13.7539 49.2333 13.3217C49.8517 12.8895 50.2307 12.2579 50.3836 11.4467C50.5299 10.6488 50.377 10.0304 49.9248 9.5982C49.4727 9.166 48.7812 8.94658 47.857 8.94658H44.1135C43.7013 8.94658 43.3023 9.27904 43.2292 9.69129L42.5709 13.2286Z" fill="#14155E"/>
<path d="M53.217 23.8074L56.4751 6.26033C56.5549 5.84808 56.9472 5.51562 57.3594 5.51562H70.2588C70.671 5.51562 70.9436 5.84808 70.8638 6.26033L70.5048 8.19523C70.425 8.60748 70.0327 8.93993 69.6204 8.93993H60.8635C60.4513 8.93993 60.0523 9.27239 59.9792 9.68464L59.4871 12.3243C59.4074 12.7366 59.68 13.069 60.0922 13.069H66.3491C66.7613 13.069 67.0339 13.4015 66.9541 13.8138L66.6017 15.6955C66.5219 16.1077 66.1296 16.4402 65.7174 16.4402H59.4606C59.0483 16.4402 58.6494 16.7726 58.5762 17.1849L57.9844 20.3698C57.9047 20.7821 58.1773 21.1145 58.5895 21.1145H67.3531C67.7653 21.1145 68.0379 21.447 67.9582 21.8592L67.5991 23.7941C67.5193 24.2064 67.127 24.5388 66.7148 24.5388H53.8154C53.4098 24.5521 53.1372 24.2197 53.217 23.8074Z" fill="#14155E"/>
<path d="M83.0605 24.0468L82.5219 20.5959C82.4754 20.2967 82.2294 20.0905 81.9102 20.0905H75.2478C74.9286 20.0905 74.6094 20.29 74.4499 20.5892L72.5815 24.0534C72.4219 24.3526 72.1027 24.5521 71.7836 24.5521H68.9577C68.4324 24.5521 68.1731 24.0268 68.4457 23.5414L78.4061 5.99436C78.5723 5.70845 78.8848 5.51562 79.1907 5.51562H83.5193C83.8318 5.51562 84.0712 5.70845 84.1244 5.99436L87.5021 23.5414C87.5952 24.0268 87.1364 24.5521 86.6178 24.5521H83.6589C83.3531 24.5521 83.107 24.3526 83.0605 24.0468ZM77.6082 16.6662H80.8729C81.3849 16.6662 81.8371 16.1609 81.7639 15.6755L81.2719 12.5305C81.1323 11.7259 81.212 10.3961 81.5046 8.54763C81.5711 8.14203 81.2985 7.82288 80.8929 7.82288H80.8862C80.4806 7.82288 80.095 8.14203 80.0085 8.54763C79.7891 9.5716 79.6162 10.2831 79.4966 10.682C79.3303 11.3004 79.0843 11.9254 78.7652 12.5571L77.0962 15.6689C76.8236 16.1542 77.0896 16.6662 77.6082 16.6662Z" fill="#14155E"/>
<path d="M88.2951 23.8074L91.5598 6.26033C91.6396 5.84808 92.0319 5.51562 92.4442 5.51562H100.237C102.285 5.51562 103.841 6.07415 104.905 7.19121C105.969 8.30826 106.321 9.79767 105.975 11.6661C105.629 13.5345 104.712 15.0372 103.236 16.1675C101.753 17.2979 99.9976 17.8697 97.9696 17.8697H94.2793C93.8671 17.8697 93.4681 18.2022 93.395 18.6144L92.4309 23.8141C92.3511 24.2263 91.9588 24.5588 91.5465 24.5588H88.9068C88.4879 24.5521 88.2153 24.2197 88.2951 23.8074ZM94.3126 13.6874C94.2328 14.0997 94.5054 14.4321 94.9177 14.4321H97.8433C98.8406 14.4321 99.6917 14.1861 100.39 13.6874C101.088 13.1887 101.52 12.5105 101.68 11.6594C101.833 10.8416 101.647 10.1833 101.121 9.68464C100.596 9.18595 99.8447 8.93993 98.8672 8.93993H95.9416C95.5294 8.93993 95.1304 9.27239 95.0573 9.68464L94.3126 13.6874Z" fill="#14155E"/>
<path d="M104.718 18.8884L107.351 18.0572C107.763 17.9309 108.142 18.1304 108.209 18.516C108.342 19.3139 108.674 20.0054 109.206 20.5839C109.884 21.3286 110.895 21.701 112.238 21.701C113.468 21.701 114.439 21.4816 115.151 21.0494C115.855 20.6172 116.281 20.0187 116.421 19.2541C116.653 18.0041 115.762 17.2261 113.754 16.9136L111.447 16.5878C107.544 16.0226 105.895 14.121 106.5 10.8762C106.806 9.22719 107.737 7.85082 109.293 6.74041C110.849 5.63665 112.79 5.07812 115.111 5.07812C117.325 5.07812 119.014 5.54357 120.184 6.48109C121.155 7.25904 121.786 8.23647 122.079 9.42001C122.179 9.81896 121.886 10.2778 121.454 10.4174L118.887 11.2618C118.502 11.3882 118.129 11.2153 118.036 10.8629C117.604 9.20059 116.427 8.36945 114.499 8.36945C113.428 8.36945 112.584 8.58887 111.959 9.02107C111.334 9.45326 110.955 10.0184 110.829 10.7099C110.623 11.8337 111.307 12.5119 112.897 12.7512L115.204 13.077C117.272 13.3696 118.794 14.0079 119.765 15.0053C120.742 16.0027 121.075 17.3258 120.769 18.9748C120.443 20.7369 119.486 22.1731 117.897 23.2968C116.308 24.4205 114.22 24.9857 111.627 24.9857C109.2 24.9857 107.338 24.4404 106.055 23.3566C104.951 22.4191 104.293 21.2422 104.08 19.8259C104.013 19.4403 104.306 19.0214 104.718 18.8884Z" fill="#14155E"/>
<path d="M36.9052 30.9844V26.8693H37.506V28.3984H37.5422C37.577 28.3341 37.6272 28.2598 37.6929 28.1754C37.7585 28.091 37.8496 28.0173 37.9661 27.9543C38.0827 27.89 38.2367 27.8579 38.4283 27.8579C38.6774 27.8579 38.8998 27.9209 39.0954 28.0468C39.2909 28.1727 39.4443 28.3542 39.5555 28.5913C39.668 28.8284 39.7243 29.1137 39.7243 29.4473C39.7243 29.7808 39.6687 30.0668 39.5575 30.3052C39.4463 30.5423 39.2936 30.7252 39.0994 30.8538C38.9051 30.981 38.6835 31.0447 38.4343 31.0447C38.2468 31.0447 38.0934 31.0132 37.9742 30.9502C37.8563 30.8873 37.7639 30.8136 37.6969 30.7292C37.6299 30.6448 37.5783 30.5698 37.5422 30.5042H37.4919V30.9844H36.9052ZM37.4939 29.4412C37.4939 29.6582 37.5254 29.8484 37.5884 30.0119C37.6513 30.1753 37.7424 30.3032 37.8616 30.3956C37.9809 30.4867 38.1269 30.5323 38.2997 30.5323C38.4792 30.5323 38.6292 30.4847 38.7498 30.3896C38.8703 30.2932 38.9614 30.1626 39.023 29.9978C39.086 29.833 39.1175 29.6475 39.1175 29.4412C39.1175 29.2376 39.0867 29.0548 39.025 28.8927C38.9648 28.7306 38.8737 28.6027 38.7518 28.5089C38.6312 28.4151 38.4805 28.3683 38.2997 28.3683C38.1255 28.3683 37.9782 28.4131 37.8576 28.5029C37.7384 28.5926 37.648 28.7179 37.5864 28.8786C37.5248 29.0394 37.4939 29.2269 37.4939 29.4412ZM40.6737 32.1417C40.5839 32.1417 40.5022 32.1344 40.4285 32.1196C40.3549 32.1062 40.2999 32.0915 40.2638 32.0754L40.4084 31.5831C40.5183 31.6126 40.6161 31.6253 40.7018 31.6213C40.7875 31.6173 40.8632 31.5852 40.9289 31.5249C40.9958 31.4646 41.0548 31.3661 41.1057 31.2295L41.18 31.0246L40.0508 27.8981H40.6938L41.4754 30.2932H41.5075L42.2892 27.8981H42.9341L41.6623 31.3963C41.6033 31.557 41.5283 31.693 41.4372 31.8042C41.3461 31.9167 41.2376 32.0011 41.1117 32.0573C40.9858 32.1136 40.8398 32.1417 40.6737 32.1417ZM45.4041 26.8693L46.5494 30.2208H46.5956L47.7409 26.8693H48.412L46.9312 30.9844H46.2138L44.733 26.8693H45.4041ZM48.958 30.9844V27.8981H49.5588V30.9844H48.958ZM49.2615 27.4219C49.157 27.4219 49.0672 27.387 48.9922 27.3174C48.9185 27.2464 48.8817 27.162 48.8817 27.0642C48.8817 26.9651 48.9185 26.8807 48.9922 26.811C49.0672 26.74 49.157 26.7046 49.2615 26.7046C49.3659 26.7046 49.455 26.74 49.5287 26.811C49.6037 26.8807 49.6412 26.9651 49.6412 27.0642C49.6412 27.162 49.6037 27.2464 49.5287 27.3174C49.455 27.387 49.3659 27.4219 49.2615 27.4219ZM51.2652 31.0527C51.0697 31.0527 50.8928 31.0165 50.7348 30.9442C50.5767 30.8705 50.4515 30.764 50.359 30.6247C50.268 30.4854 50.2224 30.3146 50.2224 30.1123C50.2224 29.9382 50.2559 29.7949 50.3229 29.6823C50.3898 29.5698 50.4803 29.4807 50.5941 29.4151C50.708 29.3495 50.8352 29.2999 50.9759 29.2664C51.1165 29.2329 51.2599 29.2075 51.4059 29.1901C51.5907 29.1686 51.7408 29.1512 51.856 29.1378C51.9712 29.1231 52.0549 29.0996 52.1071 29.0675C52.1594 29.0353 52.1855 28.9831 52.1855 28.9108V28.8967C52.1855 28.7212 52.1359 28.5853 52.0368 28.4888C51.939 28.3924 51.793 28.3441 51.5988 28.3441C51.3965 28.3441 51.2371 28.389 51.1206 28.4788C51.0054 28.5672 50.9257 28.6656 50.8815 28.7741L50.3168 28.6455C50.3838 28.458 50.4816 28.3066 50.6102 28.1914C50.7401 28.0749 50.8895 27.9905 51.0583 27.9383C51.2271 27.8847 51.4045 27.8579 51.5907 27.8579C51.714 27.8579 51.8446 27.8726 51.9826 27.9021C52.1219 27.9302 52.2518 27.9825 52.3724 28.0588C52.4943 28.1352 52.5941 28.2443 52.6718 28.3863C52.7494 28.527 52.7883 28.7098 52.7883 28.9349V30.9844H52.2016V30.5624H52.1775C52.1386 30.6401 52.0803 30.7165 52.0027 30.7915C51.925 30.8665 51.8252 30.9288 51.7033 30.9783C51.5814 31.0279 51.4354 31.0527 51.2652 31.0527ZM51.3958 30.5705C51.5619 30.5705 51.7039 30.5376 51.8218 30.472C51.941 30.4064 52.0315 30.3206 52.0931 30.2148C52.156 30.1076 52.1875 29.9931 52.1875 29.8712V29.4734C52.1661 29.4948 52.1246 29.5149 52.0629 29.5337C52.0027 29.5511 51.9337 29.5665 51.856 29.5799C51.7783 29.5919 51.7026 29.6033 51.6289 29.614C51.5552 29.6234 51.4936 29.6314 51.4441 29.6381C51.3275 29.6529 51.221 29.6777 51.1246 29.7125C51.0295 29.7473 50.9531 29.7975 50.8955 29.8632C50.8393 29.9275 50.8111 30.0132 50.8111 30.1204C50.8111 30.2691 50.8661 30.3816 50.9759 30.4579C51.0857 30.533 51.2257 30.5705 51.3958 30.5705ZM53.6367 30.9844V26.8693H54.2375V28.3984H54.2737C54.3085 28.3341 54.3587 28.2598 54.4244 28.1754C54.49 28.091 54.5811 28.0173 54.6976 27.9543C54.8142 27.89 54.9682 27.8579 55.1598 27.8579C55.4089 27.8579 55.6313 27.9209 55.8269 28.0468C56.0224 28.1727 56.1758 28.3542 56.287 28.5913C56.3995 28.8284 56.4558 29.1137 56.4558 29.4473C56.4558 29.7808 56.4002 30.0668 56.289 30.3052C56.1778 30.5423 56.0251 30.7252 55.8309 30.8538C55.6367 30.981 55.415 31.0447 55.1658 31.0447C54.9783 31.0447 54.8249 31.0132 54.7057 30.9502C54.5878 30.8873 54.4954 30.8136 54.4284 30.7292C54.3614 30.6448 54.3098 30.5698 54.2737 30.5042H54.2234V30.9844H53.6367ZM54.2254 29.4412C54.2254 29.6582 54.2569 29.8484 54.3199 30.0119C54.3828 30.1753 54.4739 30.3032 54.5932 30.3956C54.7124 30.4867 54.8584 30.5323 55.0312 30.5323C55.2107 30.5323 55.3607 30.4847 55.4813 30.3896C55.6018 30.2932 55.6929 30.1626 55.7545 29.9978C55.8175 29.833 55.849 29.6475 55.849 29.4412C55.849 29.2376 55.8182 29.0548 55.7565 28.8927C55.6963 28.7306 55.6052 28.6027 55.4833 28.5089C55.3627 28.4151 55.212 28.3683 55.0312 28.3683C54.857 28.3683 54.7097 28.4131 54.5891 28.5029C54.4699 28.5926 54.3795 28.7179 54.3179 28.8786C54.2563 29.0394 54.2254 29.2269 54.2254 29.4412ZM57.7312 26.8693V30.9844H57.1304V26.8693H57.7312ZM59.8696 31.0467C59.5655 31.0467 59.3036 30.9817 59.084 30.8518C58.8656 30.7205 58.6968 30.5363 58.5776 30.2992C58.4597 30.0608 58.4008 29.7815 58.4008 29.4613C58.4008 29.1452 58.4597 28.8666 58.5776 28.6254C58.6968 28.3843 58.8629 28.1961 59.0759 28.0608C59.2902 27.9255 59.5407 27.8579 59.8274 27.8579C60.0015 27.8579 60.1703 27.8867 60.3337 27.9443C60.4972 28.0019 60.6438 28.0923 60.7738 28.2155C60.9037 28.3388 61.0062 28.4989 61.0812 28.6958C61.1562 28.8913 61.1937 29.1291 61.1937 29.4091V29.6221H58.7404V29.172H60.605C60.605 29.0139 60.5728 28.8739 60.5086 28.752C60.4443 28.6288 60.3538 28.5317 60.2373 28.4607C60.1221 28.3897 59.9868 28.3542 59.8314 28.3542C59.6626 28.3542 59.5153 28.3957 59.3894 28.4788C59.2648 28.5605 59.1683 28.6676 59.1 28.8003C59.033 28.9315 58.9996 29.0742 58.9996 29.2282V29.5799C58.9996 29.7862 59.0357 29.9616 59.1081 30.1063C59.1817 30.251 59.2842 30.3615 59.4155 30.4378C59.5468 30.5129 59.7001 30.5504 59.8756 30.5504C59.9895 30.5504 60.0933 30.5343 60.1871 30.5021C60.2808 30.4687 60.3619 30.4191 60.4302 30.3535C60.4985 30.2878 60.5507 30.2068 60.5869 30.1103L61.1555 30.2128C61.11 30.3802 61.0283 30.5269 60.9104 30.6528C60.7939 30.7774 60.6472 30.8745 60.4704 30.9442C60.2949 31.0125 60.0946 31.0467 59.8696 31.0467ZM63.406 30.9844V26.8693H64.0268V28.8344H64.0771L65.8031 26.8693H66.5847L64.925 28.7219L66.5907 30.9844H65.8433L64.5131 29.1459L64.0268 29.7044V30.9844H63.406ZM67.7159 29.1519V30.9844H67.1152V27.8981H67.6918V28.4004H67.73C67.801 28.237 67.9122 28.1057 68.0635 28.0066C68.2163 27.9075 68.4085 27.8579 68.6402 27.8579C68.8505 27.8579 69.0347 27.9021 69.1928 27.9905C69.3508 28.0776 69.4734 28.2075 69.5605 28.3803C69.6476 28.5531 69.6911 28.7668 69.6911 29.0213V30.9844H69.0903V29.0936C69.0903 28.8699 69.032 28.6951 68.9155 28.5692C68.799 28.4419 68.6389 28.3783 68.4353 28.3783C68.296 28.3783 68.172 28.4084 68.0635 28.4687C67.9564 28.529 67.8713 28.6174 67.8084 28.734C67.7467 28.8492 67.7159 28.9885 67.7159 29.1519ZM71.7968 31.0467C71.5075 31.0467 71.255 30.9804 71.0393 30.8477C70.8237 30.7151 70.6562 30.5296 70.537 30.2912C70.4178 30.0527 70.3582 29.7741 70.3582 29.4553C70.3582 29.1351 70.4178 28.8552 70.537 28.6154C70.6562 28.3756 70.8237 28.1894 71.0393 28.0568C71.255 27.9242 71.5075 27.8579 71.7968 27.8579C72.0862 27.8579 72.3387 27.9242 72.5544 28.0568C72.77 28.1894 72.9375 28.3756 73.0567 28.6154C73.1759 28.8552 73.2355 29.1351 73.2355 29.4553C73.2355 29.7741 73.1759 30.0527 73.0567 30.2912C72.9375 30.5296 72.77 30.7151 72.5544 30.8477C72.3387 30.9804 72.0862 31.0467 71.7968 31.0467ZM71.7989 30.5423C71.9864 30.5423 72.1418 30.4928 72.265 30.3936C72.3882 30.2945 72.4793 30.1626 72.5383 29.9978C72.5986 29.833 72.6287 29.6515 72.6287 29.4533C72.6287 29.2564 72.5986 29.0755 72.5383 28.9108C72.4793 28.7447 72.3882 28.6114 72.265 28.5109C72.1418 28.4105 71.9864 28.3602 71.7989 28.3602C71.61 28.3602 71.4533 28.4105 71.3287 28.5109C71.2054 28.6114 71.1137 28.7447 71.0534 28.9108C70.9945 29.0755 70.965 29.2564 70.965 29.4533C70.965 29.6515 70.9945 29.833 71.0534 29.9978C71.1137 30.1626 71.2054 30.2945 71.3287 30.3936C71.4533 30.4928 71.61 30.5423 71.7989 30.5423ZM74.4813 30.9844L73.5731 27.8981H74.1939L74.7987 30.1646H74.8289L75.4357 27.8981H76.0566L76.6594 30.1545H76.6895L77.2903 27.8981H77.9112L77.005 30.9844H76.3921L75.7652 28.7561H75.719L75.0921 30.9844H74.4813ZM79.0821 26.8693V30.9844H78.4813V26.8693H79.0821ZM81.2205 31.0467C80.9164 31.0467 80.6545 30.9817 80.4349 30.8518C80.2165 30.7205 80.0477 30.5363 79.9285 30.2992C79.8106 30.0608 79.7517 29.7815 79.7517 29.4613C79.7517 29.1452 79.8106 28.8666 79.9285 28.6254C80.0477 28.3843 80.2138 28.1961 80.4268 28.0608C80.6411 27.9255 80.8916 27.8579 81.1783 27.8579C81.3524 27.8579 81.5212 27.8867 81.6846 27.9443C81.8481 28.0019 81.9947 28.0923 82.1247 28.2155C82.2546 28.3388 82.3571 28.4989 82.4321 28.6958C82.5071 28.8913 82.5446 29.1291 82.5446 29.4091V29.6221H80.0913V29.172H81.9559C81.9559 29.0139 81.9237 28.8739 81.8594 28.752C81.7952 28.6288 81.7047 28.5317 81.5882 28.4607C81.473 28.3897 81.3377 28.3542 81.1823 28.3542C81.0135 28.3542 80.8662 28.3957 80.7403 28.4788C80.6157 28.5605 80.5192 28.6676 80.4509 28.8003C80.3839 28.9315 80.3505 29.0742 80.3505 29.2282V29.5799C80.3505 29.7862 80.3866 29.9616 80.459 30.1063C80.5326 30.251 80.6351 30.3615 80.7664 30.4378C80.8977 30.5129 81.051 30.5504 81.2265 30.5504C81.3404 30.5504 81.4442 30.5343 81.538 30.5021C81.6317 30.4687 81.7128 30.4191 81.7811 30.3535C81.8494 30.2878 81.9016 30.2068 81.9378 30.1103L82.5064 30.2128C82.4609 30.3802 82.3792 30.5269 82.2613 30.6528C82.1448 30.7774 81.9981 30.8745 81.8213 30.9442C81.6458 31.0125 81.4455 31.0467 81.2205 31.0467ZM84.3666 31.0447C84.1174 31.0447 83.895 30.981 83.6995 30.8538C83.5052 30.7252 83.3525 30.5423 83.2414 30.3052C83.1315 30.0668 83.0766 29.7808 83.0766 29.4473C83.0766 29.1137 83.1322 28.8284 83.2434 28.5913C83.3559 28.3542 83.5099 28.1727 83.7055 28.0468C83.9011 27.9209 84.1228 27.8579 84.3706 27.8579C84.5621 27.8579 84.7162 27.89 84.8327 27.9543C84.9506 28.0173 85.0417 28.091 85.106 28.1754C85.1716 28.2598 85.2225 28.3341 85.2587 28.3984H85.2949V26.8693H85.8956V30.9844H85.3089V30.5042H85.2587C85.2225 30.5698 85.1703 30.6448 85.102 30.7292C85.035 30.8136 84.9426 30.8873 84.8247 30.9502C84.7068 31.0132 84.5541 31.0447 84.3666 31.0447ZM84.4992 30.5323C84.672 30.5323 84.818 30.4867 84.9372 30.3956C85.0578 30.3032 85.1489 30.1753 85.2105 30.0119C85.2734 29.8484 85.3049 29.6582 85.3049 29.4412C85.3049 29.2269 85.2741 29.0394 85.2125 28.8786C85.1509 28.7179 85.0604 28.5926 84.9412 28.5029C84.822 28.4131 84.6747 28.3683 84.4992 28.3683C84.3183 28.3683 84.1676 28.4151 84.0471 28.5089C83.9265 28.6027 83.8354 28.7306 83.7738 28.8927C83.7135 29.0548 83.6834 29.2376 83.6834 29.4412C83.6834 29.6475 83.7142 29.833 83.7758 29.9978C83.8374 30.1626 83.9285 30.2932 84.0491 30.3896C84.171 30.4847 84.321 30.5323 84.4992 30.5323ZM88.0471 32.206C87.802 32.206 87.591 32.1739 87.4142 32.1096C87.2387 32.0453 87.0954 31.9602 86.9842 31.8544C86.873 31.7486 86.79 31.6327 86.735 31.5068L87.2514 31.2938C87.2876 31.3527 87.3358 31.415 87.3961 31.4807C87.4577 31.5477 87.5408 31.6046 87.6453 31.6515C87.7511 31.6983 87.887 31.7218 88.0531 31.7218C88.2809 31.7218 88.4691 31.6662 88.6178 31.555C88.7664 31.4452 88.8408 31.2697 88.8408 31.0286V30.4218H88.8026C88.7664 30.4874 88.7142 30.5604 88.6459 30.6408C88.5789 30.7212 88.4865 30.7908 88.3686 30.8498C88.2507 30.9087 88.0973 30.9382 87.9085 30.9382C87.6647 30.9382 87.445 30.8812 87.2494 30.7674C87.0552 30.6522 86.9011 30.4827 86.7873 30.259C86.6748 30.034 86.6185 29.7574 86.6185 29.4292C86.6185 29.101 86.6741 28.8197 86.7853 28.5853C86.8978 28.3508 87.0518 28.1713 87.2474 28.0468C87.443 27.9209 87.6647 27.8579 87.9125 27.8579C88.104 27.8579 88.2588 27.89 88.3766 27.9543C88.4945 28.0173 88.5863 28.091 88.6519 28.1754C88.7189 28.2598 88.7705 28.3341 88.8066 28.3984H88.8508V27.8981H89.4396V31.0527C89.4396 31.3179 89.3779 31.5356 89.2547 31.7057C89.1315 31.8758 88.9647 32.0018 88.7544 32.0835C88.5454 32.1652 88.3097 32.206 88.0471 32.206ZM88.0411 30.4399C88.2139 30.4399 88.3599 30.3997 88.4791 30.3193C88.5997 30.2376 88.6908 30.121 88.7524 29.9697C88.8153 29.817 88.8468 29.6341 88.8468 29.4211C88.8468 29.2135 88.816 29.0307 88.7544 28.8726C88.6928 28.7145 88.6024 28.5913 88.4831 28.5029C88.3639 28.4131 88.2166 28.3683 88.0411 28.3683C87.8602 28.3683 87.7095 28.4151 87.589 28.5089C87.4684 28.6013 87.3773 28.7273 87.3157 28.8867C87.2554 29.0461 87.2253 29.2242 87.2253 29.4211C87.2253 29.6234 87.2561 29.8009 87.3177 29.9536C87.3794 30.1063 87.4704 30.2255 87.591 30.3113C87.7129 30.397 87.8629 30.4399 88.0411 30.4399ZM91.5755 31.0467C91.2714 31.0467 91.0095 30.9817 90.7898 30.8518C90.5715 30.7205 90.4027 30.5363 90.2835 30.2992C90.1656 30.0608 90.1067 29.7815 90.1067 29.4613C90.1067 29.1452 90.1656 28.8666 90.2835 28.6254C90.4027 28.3843 90.5688 28.1961 90.7818 28.0608C90.9961 27.9255 91.2466 27.8579 91.5333 27.8579C91.7074 27.8579 91.8762 27.8867 92.0396 27.9443C92.203 28.0019 92.3497 28.0923 92.4796 28.2155C92.6096 28.3388 92.7121 28.4989 92.7871 28.6958C92.8621 28.8913 92.8996 29.1291 92.8996 29.4091V29.6221H90.4462V29.172H92.3109C92.3109 29.0139 92.2787 28.8739 92.2144 28.752C92.1501 28.6288 92.0597 28.5317 91.9432 28.4607C91.828 28.3897 91.6927 28.3542 91.5373 28.3542C91.3685 28.3542 91.2211 28.3957 91.0952 28.4788C90.9707 28.5605 90.8742 28.6676 90.8059 28.8003C90.7389 28.9315 90.7054 29.0742 90.7054 29.2282V29.5799C90.7054 29.7862 90.7416 29.9616 90.8139 30.1063C90.8876 30.251 90.9901 30.3615 91.1214 30.4378C91.2526 30.5129 91.406 30.5504 91.5815 30.5504C91.6953 30.5504 91.7992 30.5343 91.8929 30.5021C91.9867 30.4687 92.0677 30.4191 92.1361 30.3535C92.2044 30.2878 92.2566 30.2068 92.2928 30.1103L92.8614 30.2128C92.8159 30.3802 92.7342 30.5269 92.6163 30.6528C92.4997 30.7774 92.3531 30.8745 92.1762 30.9442C92.0008 31.0125 91.8005 31.0467 91.5755 31.0467ZM95.1118 26.8693H95.8653L97.1754 30.0681H97.2236L98.5337 26.8693H99.2872V30.9844H98.6964V28.0066H98.6583L97.4446 30.9783H96.9544L95.7408 28.0046H95.7026V30.9844H95.1118V26.8693ZM101.04 31.0527C100.844 31.0527 100.667 31.0165 100.509 30.9442C100.351 30.8705 100.226 30.764 100.134 30.6247C100.043 30.4854 99.997 30.3146 99.997 30.1123C99.997 29.9382 100.03 29.7949 100.097 29.6823C100.164 29.5698 100.255 29.4807 100.369 29.4151C100.483 29.3495 100.61 29.2999 100.75 29.2664C100.891 29.2329 101.034 29.2075 101.18 29.1901C101.365 29.1686 101.515 29.1512 101.631 29.1378C101.746 29.1231 101.829 29.0996 101.882 29.0675C101.934 29.0353 101.96 28.9831 101.96 28.9108V28.8967C101.96 28.7212 101.91 28.5853 101.811 28.4888C101.714 28.3924 101.568 28.3441 101.373 28.3441C101.171 28.3441 101.012 28.389 100.895 28.4788C100.78 28.5672 100.7 28.6656 100.656 28.7741L100.091 28.6455C100.158 28.458 100.256 28.3066 100.385 28.1914C100.515 28.0749 100.664 27.9905 100.833 27.9383C101.002 27.8847 101.179 27.8579 101.365 27.8579C101.489 27.8579 101.619 27.8726 101.757 27.9021C101.896 27.9302 102.026 27.9825 102.147 28.0588C102.269 28.1352 102.369 28.2443 102.446 28.3863C102.524 28.527 102.563 28.7098 102.563 28.9349V30.9844H101.976V30.5624H101.952C101.913 30.6401 101.855 30.7165 101.777 30.7915C101.7 30.8665 101.6 30.9288 101.478 30.9783C101.356 31.0279 101.21 31.0527 101.04 31.0527ZM101.17 30.5705C101.337 30.5705 101.478 30.5376 101.596 30.472C101.716 30.4064 101.806 30.3206 101.868 30.2148C101.931 30.1076 101.962 29.9931 101.962 29.8712V29.4734C101.941 29.4948 101.899 29.5149 101.837 29.5337C101.777 29.5511 101.708 29.5665 101.631 29.5799C101.553 29.5919 101.477 29.6033 101.403 29.614C101.33 29.6234 101.268 29.6314 101.219 29.6381C101.102 29.6529 100.996 29.6777 100.899 29.7125C100.804 29.7473 100.728 29.7975 100.67 29.8632C100.614 29.9275 100.586 30.0132 100.586 30.1204C100.586 30.2691 100.641 30.3816 100.75 30.4579C100.86 30.533 101 30.5705 101.17 30.5705ZM105.676 28.6516L105.131 28.748C105.108 28.6784 105.072 28.6121 105.023 28.5491C104.975 28.4861 104.909 28.4346 104.826 28.3944C104.743 28.3542 104.639 28.3341 104.514 28.3341C104.344 28.3341 104.202 28.3723 104.088 28.4486C103.975 28.5236 103.918 28.6208 103.918 28.74C103.918 28.8431 103.956 28.9262 104.032 28.9891C104.109 29.0521 104.232 29.1037 104.402 29.1438L104.892 29.2564C105.176 29.322 105.388 29.4231 105.527 29.5598C105.666 29.6964 105.736 29.8739 105.736 30.0922C105.736 30.2771 105.682 30.4419 105.575 30.5865C105.469 30.7299 105.321 30.8424 105.131 30.9241C104.942 31.0058 104.723 31.0467 104.474 31.0467C104.129 31.0467 103.847 30.973 103.628 30.8256C103.41 30.677 103.276 30.466 103.226 30.1927L103.807 30.1043C103.843 30.2557 103.918 30.3702 104.03 30.4479C104.143 30.5242 104.289 30.5624 104.47 30.5624C104.667 30.5624 104.824 30.5216 104.942 30.4399C105.06 30.3568 105.119 30.2557 105.119 30.1364C105.119 30.04 105.083 29.959 105.011 29.8933C104.94 29.8277 104.831 29.7781 104.683 29.7446L104.161 29.6301C103.873 29.5645 103.66 29.46 103.522 29.3166C103.385 29.1733 103.317 28.9918 103.317 28.7721C103.317 28.59 103.368 28.4305 103.47 28.2939C103.571 28.1573 103.712 28.0508 103.892 27.9744C104.071 27.8967 104.277 27.8579 104.508 27.8579C104.842 27.8579 105.104 27.9302 105.296 28.0749C105.488 28.2182 105.614 28.4105 105.676 28.6516ZM107.837 27.8981V28.3803H106.151V27.8981H107.837ZM106.604 27.1587H107.204V30.0782C107.204 30.1947 107.222 30.2825 107.257 30.3414C107.291 30.399 107.336 30.4385 107.391 30.4599C107.447 30.48 107.508 30.4901 107.574 30.4901C107.622 30.4901 107.664 30.4867 107.701 30.48C107.737 30.4733 107.765 30.468 107.785 30.464L107.894 30.9603C107.859 30.9737 107.809 30.9871 107.745 31.0004C107.681 31.0152 107.6 31.0232 107.504 31.0246C107.346 31.0272 107.198 30.9991 107.062 30.9402C106.925 30.8812 106.815 30.7901 106.73 30.6669C106.646 30.5437 106.604 30.389 106.604 30.2028V27.1587ZM109.799 31.0467C109.495 31.0467 109.233 30.9817 109.013 30.8518C108.795 30.7205 108.626 30.5363 108.507 30.2992C108.389 30.0608 108.33 29.7815 108.33 29.4613C108.33 29.1452 108.389 28.8666 108.507 28.6254C108.626 28.3843 108.792 28.1961 109.005 28.0608C109.22 27.9255 109.47 27.8579 109.757 27.8579C109.931 27.8579 110.1 27.8867 110.263 27.9443C110.426 28.0019 110.573 28.0923 110.703 28.2155C110.833 28.3388 110.935 28.4989 111.01 28.6958C111.085 28.8913 111.123 29.1291 111.123 29.4091V29.6221H108.67V29.172H110.534C110.534 29.0139 110.502 28.8739 110.438 28.752C110.374 28.6288 110.283 28.5317 110.167 28.4607C110.051 28.3897 109.916 28.3542 109.761 28.3542C109.592 28.3542 109.445 28.3957 109.319 28.4788C109.194 28.5605 109.098 28.6676 109.029 28.8003C108.962 28.9315 108.929 29.0742 108.929 29.2282V29.5799C108.929 29.7862 108.965 29.9616 109.037 30.1063C109.111 30.251 109.213 30.3615 109.345 30.4378C109.476 30.5129 109.629 30.5504 109.805 30.5504C109.919 30.5504 110.023 30.5343 110.116 30.5021C110.21 30.4687 110.291 30.4191 110.359 30.3535C110.428 30.2878 110.48 30.2068 110.516 30.1103L111.085 30.2128C111.039 30.3802 110.958 30.5269 110.84 30.6528C110.723 30.7774 110.576 30.8745 110.4 30.9442C110.224 31.0125 110.024 31.0467 109.799 31.0467ZM111.79 30.9844V27.8981H112.37V28.3883H112.402C112.459 28.2222 112.558 28.0916 112.7 27.9965C112.843 27.9001 113.005 27.8519 113.186 27.8519C113.224 27.8519 113.268 27.8532 113.319 27.8559C113.371 27.8586 113.412 27.8619 113.441 27.8659V28.4406C113.417 28.4339 113.374 28.4265 113.313 28.4185C113.251 28.4091 113.189 28.4044 113.128 28.4044C112.986 28.4044 112.859 28.4346 112.748 28.4948C112.638 28.5538 112.551 28.6362 112.487 28.742C112.423 28.8465 112.39 28.9657 112.39 29.0996V30.9844H111.79ZM116.274 28.6516L115.729 28.748C115.707 28.6784 115.67 28.6121 115.621 28.5491C115.573 28.4861 115.507 28.4346 115.424 28.3944C115.341 28.3542 115.237 28.3341 115.112 28.3341C114.942 28.3341 114.8 28.3723 114.687 28.4486C114.573 28.5236 114.516 28.6208 114.516 28.74C114.516 28.8431 114.554 28.9262 114.63 28.9891C114.707 29.0521 114.83 29.1037 115 29.1438L115.49 29.2564C115.774 29.322 115.986 29.4231 116.125 29.5598C116.264 29.6964 116.334 29.8739 116.334 30.0922C116.334 30.2771 116.281 30.4419 116.173 30.5865C116.068 30.7299 115.92 30.8424 115.729 30.9241C115.54 31.0058 115.321 31.0467 115.072 31.0467C114.727 31.0467 114.445 30.973 114.226 30.8256C114.008 30.677 113.874 30.466 113.825 30.1927L114.405 30.1043C114.441 30.2557 114.516 30.3702 114.628 30.4479C114.741 30.5242 114.887 30.5624 115.068 30.5624C115.265 30.5624 115.423 30.5216 115.54 30.4399C115.658 30.3568 115.717 30.2557 115.717 30.1364C115.717 30.04 115.681 29.959 115.609 29.8933C115.538 29.8277 115.429 29.7781 115.281 29.7446L114.759 29.6301C114.471 29.5645 114.258 29.46 114.12 29.3166C113.983 29.1733 113.915 28.9918 113.915 28.7721C113.915 28.59 113.966 28.4305 114.068 28.2939C114.169 28.1573 114.31 28.0508 114.49 27.9744C114.669 27.8967 114.875 27.8579 115.106 27.8579C115.44 27.8579 115.703 27.9302 115.894 28.0749C116.086 28.2182 116.212 28.4105 116.274 28.6516Z" fill="#0D1F00"/>
</svg>
