<svg width="174" height="49" viewBox="0 0 174 49" fill="none" xmlns="http://www.w3.org/2000/svg">
<rect x="0.5" y="1" width="173" height="47" rx="7.5" stroke="#CCCCCB"/>
<path d="M96.8055 22.5415H96V22.5H87V26.5H92.6515C91.827 28.8285 89.6115 30.5 87 30.5C83.6865 30.5 81 27.8135 81 24.5C81 21.1865 83.6865 18.5 87 18.5C88.5295 18.5 89.921 19.077 90.9805 20.0195L93.809 17.191C92.023 15.5265 89.634 14.5 87 14.5C81.4775 14.5 77 18.9775 77 24.5C77 30.0225 81.4775 34.5 87 34.5C92.5225 34.5 97 30.0225 97 24.5C97 23.8295 96.931 23.175 96.8055 22.5415Z" fill="#FFC107"/>
<path d="M78.153 19.8455L81.4385 22.255C82.3275 20.054 84.4805 18.5 87 18.5C88.5295 18.5 89.921 19.077 90.9805 20.0195L93.809 17.191C92.023 15.5265 89.634 14.5 87 14.5C83.159 14.5 79.828 16.6685 78.153 19.8455Z" fill="#FF3D00"/>
<path d="M87 34.5003C89.583 34.5003 91.93 33.5118 93.7045 31.9043L90.6095 29.2853C89.5718 30.0745 88.3037 30.5014 87 30.5003C84.399 30.5003 82.1905 28.8418 81.3585 26.5273L78.0975 29.0398C79.7525 32.2783 83.1135 34.5003 87 34.5003Z" fill="#4CAF50"/>
<path d="M96.8055 22.5415H96V22.5H87V26.5H92.6515C92.2571 27.6082 91.5467 28.5766 90.608 29.2855L90.6095 29.2845L93.7045 31.9035C93.4855 32.1025 97 29.5 97 24.5C97 23.8295 96.931 23.175 96.8055 22.5415Z" fill="#1976D2"/>
</svg>
