<svg width="24" height="24" viewBox="0 0 24 24" fill="none" xmlns="http://www.w3.org/2000/svg">
<path d="M11.0988 3C7.4498 3.00657 5.53898 3.09617 4.31783 4.31752C3 5.63556 3 7.75692 3 11.9996C3 16.2423 3 18.3637 4.31783 19.6817C5.63565 20.9998 7.75668 20.9998 11.9987 20.9998C16.2407 20.9998 18.3617 20.9998 19.6796 19.6817C20.9007 18.4604 20.9903 16.5492 20.9969 12.8997" stroke="black" stroke-width="1.5" stroke-linecap="round" stroke-linejoin="round"/>
<path d="M20.5561 3.4965L11.0488 13.059M20.5561 3.4965C20.0622 3.00188 16.7345 3.04798 16.031 3.05799M20.5561 3.4965C21.0501 3.99111 21.0041 7.3231 20.9941 8.02751" stroke="black" stroke-width="1.5" stroke-linecap="round" stroke-linejoin="round"/>
</svg>
