<svg width="24" height="24" viewBox="0 0 24 24" fill="none" xmlns="http://www.w3.org/2000/svg">
<path d="M18.8363 16.5694C18.5984 16.2302 18.1307 16.1481 17.7916 16.3859C17.4524 16.6238 17.3703 17.0915 17.6081 17.4306L18.8363 16.5694ZM19.8865 20.8999L20.5661 21.2171L20.5663 21.2167L19.8865 20.8999ZM19.7469 21.1467L20.369 21.5656L20.3692 21.5653L19.7469 21.1467ZM4.25311 21.1467L4.87523 20.7278L4.87522 20.7278L4.25311 21.1467ZM4.11355 20.8999L4.79337 20.5831L4.79332 20.583L4.11355 20.8999ZM6.39183 17.4306C6.62966 17.0915 6.54754 16.6238 6.20841 16.3859C5.86928 16.1481 5.40156 16.2302 5.16373 16.5694L6.39183 17.4306ZM13.2574 17.4936L13.7776 18.0338L13.7777 18.0338L13.2574 17.4936ZM10.7429 17.4936L10.221 18.0322L10.2227 18.0338L10.7429 17.4936ZM5.53371 6.30373L6.22621 6.59172L6.22621 6.59172L5.53371 6.30373ZM18.4666 6.30373L17.7741 6.59172L17.7741 6.59172L18.4666 6.30373ZM13.75 9C13.75 9.96649 12.9665 10.75 12 10.75V12.25C13.7949 12.25 15.25 10.7949 15.25 9H13.75ZM12 10.75C11.0335 10.75 10.25 9.96649 10.25 9H8.75C8.75 10.7949 10.2051 12.25 12 12.25V10.75ZM10.25 9C10.25 8.03351 11.0335 7.25 12 7.25V5.75C10.2051 5.75 8.75 7.20507 8.75 9H10.25ZM12 7.25C12.9665 7.25 13.75 8.03351 13.75 9H15.25C15.25 7.20507 13.7949 5.75 12 5.75V7.25ZM17.6081 17.4306C18.3145 18.4379 18.7889 19.145 19.0475 19.6951C19.3029 20.2382 19.2656 20.4566 19.2067 20.5831L20.5663 21.2167C20.9047 20.4908 20.7325 19.7535 20.405 19.0569C20.0808 18.3673 19.5244 17.5506 18.8363 16.5694L17.6081 17.4306ZM19.2069 20.5827C19.1836 20.6326 19.1561 20.6812 19.1246 20.7281L20.3692 21.5653C20.4437 21.4546 20.5096 21.3382 20.5661 21.2171L19.2069 20.5827ZM19.1248 20.7278C19.0261 20.8743 18.7968 21.0497 18.0331 21.1497C17.2793 21.2484 16.225 21.25 14.7178 21.25V22.75C16.1803 22.75 17.3533 22.7516 18.228 22.637C19.0928 22.5237 19.8932 22.2724 20.369 21.5656L19.1248 20.7278ZM14.7178 21.25H9.28223V22.75H14.7178V21.25ZM9.28223 21.25C7.77503 21.25 6.72071 21.2484 5.96689 21.1497C5.20326 21.0497 4.97388 20.8743 4.87523 20.7278L3.63099 21.5656C4.10688 22.2724 4.90719 22.5237 5.77206 22.637C6.64674 22.7516 7.81971 22.75 9.28223 22.75V21.25ZM4.87522 20.7278C4.84384 20.6812 4.81653 20.6328 4.79337 20.5831L3.43373 21.2167C3.49025 21.338 3.55625 21.4546 3.631 21.5656L4.87522 20.7278ZM4.79332 20.583C4.73439 20.4566 4.69714 20.2381 4.95244 19.6951C5.21107 19.145 5.68544 18.4379 6.39183 17.4306L5.16373 16.5694C4.47559 17.5506 3.91917 18.3673 3.59497 19.0569C3.26745 19.7536 3.09535 20.4908 3.43378 21.2168L4.79332 20.583ZM12.7372 16.9534C12.5399 17.1433 12.2756 17.25 12.0002 17.25V18.75C12.6629 18.75 13.3003 18.4935 13.7776 18.0338L12.7372 16.9534ZM12.0002 17.25C11.7246 17.25 11.4604 17.1433 11.2631 16.9534L10.2227 18.0338C10.7 18.4935 11.3374 18.75 12.0002 18.75V17.25ZM11.2648 16.955C9.67528 15.4148 7.96192 13.9133 6.85391 12.1908C5.78228 10.5248 5.33463 8.73563 6.22621 6.59172L4.8412 6.01574C3.71426 8.7256 4.32691 11.035 5.59236 13.0023C6.82142 14.913 8.72192 16.5796 10.221 18.0322L11.2648 16.955ZM6.22621 6.59172C7.19849 4.25372 9.54061 2.75 12.0002 2.75V1.25C8.94927 1.25 6.0517 3.10492 4.8412 6.01574L6.22621 6.59172ZM12.0002 2.75C14.4597 2.75 16.8018 4.25372 17.7741 6.59172L19.1591 6.01574C17.9486 3.10494 15.0511 1.25 12.0002 1.25V2.75ZM17.7741 6.59172C18.6645 8.73285 18.2185 10.5249 17.1479 12.193C16.0418 13.9164 14.3283 15.4206 12.7371 16.9534L13.7777 18.0338C15.2826 16.5841 17.1818 14.9172 18.4103 13.0032C19.6742 11.034 20.2847 8.72228 19.1591 6.01574L17.7741 6.59172Z" fill="black"/>
</svg>
