<svg width="87" height="21" viewBox="0 0 87 21" fill="none" xmlns="http://www.w3.org/2000/svg">
<path d="M0.971323 19.6797L4.23605 2.13264C4.31584 1.7204 4.70814 1.38794 5.12039 1.38794H13.7842C15.7989 1.38794 17.3016 1.84008 18.2923 2.75101C19.2831 3.6553 19.6355 4.87209 19.3562 6.39474C19.1235 7.64478 18.6381 8.58896 17.9067 9.22063C17.2484 9.81905 16.5303 10.2246 15.7324 10.4441C15.0941 10.6169 14.2962 10.7433 13.352 10.8098C12.9597 10.8364 12.594 11.1622 12.5209 11.5545C12.4477 11.9468 12.6938 12.2726 13.0794 12.2992C14.4824 12.3923 15.4797 12.6449 16.0782 13.0572C16.7697 13.5293 17.1221 14.4601 17.1354 15.8565L17.0888 19.5534C17.0822 20.0122 16.6566 20.4244 16.1912 20.4244H13.3254C12.9531 20.4244 12.6871 20.1452 12.7071 19.7795L12.8866 16.2089C12.9265 15.1051 12.7204 14.3205 12.2616 13.8684C11.8028 13.4162 10.9716 13.1902 9.77479 13.1902H7.06858C6.65634 13.1902 6.25739 13.5226 6.18425 13.9349L5.10709 19.6797C5.0273 20.092 4.635 20.4244 4.22275 20.4244H1.58304C1.16415 20.4244 0.891533 20.092 0.971323 19.6797ZM7.07523 9.10094C6.99544 9.51319 7.26806 9.84565 7.68031 9.84565H11.4238C12.348 9.84565 13.1193 9.62622 13.7377 9.19403C14.356 8.76184 14.735 8.13017 14.888 7.31897C15.0343 6.52108 14.8813 5.90271 14.4292 5.47051C13.977 5.03832 13.2855 4.8189 12.3613 4.8189H8.61783C8.20559 4.8189 7.80664 5.15135 7.7335 5.5636L7.07523 9.10094Z" fill="#14155E"/>
<path d="M17.7193 19.6797L20.9773 2.13264C21.0571 1.7204 21.4494 1.38794 21.8617 1.38794H34.761C35.1733 1.38794 35.4459 1.7204 35.3661 2.13264L35.007 4.06754C34.9272 4.47979 34.5349 4.81225 34.1227 4.81225H25.3658C24.9535 4.81225 24.5546 5.1447 24.4814 5.55695L23.9894 8.19666C23.9096 8.60891 24.1822 8.94136 24.5945 8.94136H30.8513C31.2636 8.94136 31.5362 9.27382 31.4564 9.68607L31.104 11.5678C31.0242 11.98 30.6319 12.3125 30.2197 12.3125H23.9628C23.5506 12.3125 23.1516 12.6449 23.0785 13.0572L22.4867 16.2421C22.4069 16.6544 22.6795 16.9868 23.0918 16.9868H31.8553C32.2676 16.9868 32.5402 17.3193 32.4604 17.7315L32.1014 19.6664C32.0216 20.0787 31.6293 20.4111 31.217 20.4111H18.3177C17.9121 20.4244 17.6395 20.092 17.7193 19.6797Z" fill="#14155E"/>
<path d="M47.5646 19.9191L47.0261 16.4682C46.9795 16.169 46.7335 15.9629 46.4144 15.9629H39.7519C39.4328 15.9629 39.1136 16.1623 38.954 16.4615L37.0856 19.9257C36.926 20.225 36.6069 20.4244 36.2877 20.4244H33.4618C32.9365 20.4244 32.6772 19.8991 32.9498 19.4138L42.9103 1.86668C43.0765 1.58076 43.389 1.38794 43.6949 1.38794H48.0234C48.336 1.38794 48.5753 1.58076 48.6285 1.86668L52.0063 19.4138C52.0994 19.8991 51.6406 20.4244 51.1219 20.4244H48.1631C47.8572 20.4244 47.6112 20.225 47.5646 19.9191ZM42.1124 12.5385H45.3771C45.8891 12.5385 46.3412 12.0332 46.2681 11.5478L45.776 8.40278C45.6364 7.59824 45.7162 6.26841 46.0088 4.41995C46.0752 4.01435 45.8026 3.69519 45.397 3.69519H45.3904C44.9848 3.69519 44.5991 4.01435 44.5127 4.41995C44.2933 5.44391 44.1204 6.15537 44.0007 6.55432C43.8345 7.17269 43.5885 7.79771 43.2693 8.42938L41.6004 11.5412C41.3278 12.0266 41.5937 12.5385 42.1124 12.5385Z" fill="#14155E"/>
<path d="M52.7989 19.6797L56.0636 2.13264C56.1434 1.7204 56.5357 1.38794 56.948 1.38794H64.7408C66.7887 1.38794 68.3446 1.94647 69.4085 3.06352C70.4723 4.18058 70.8247 5.66999 70.479 7.53839C70.1332 9.4068 69.2156 10.9095 67.7395 12.0399C66.2568 13.1702 64.5014 13.742 62.4734 13.742H58.7831C58.3709 13.742 57.9719 14.0745 57.8988 14.4867L56.9347 19.6864C56.8549 20.0986 56.4626 20.4311 56.0503 20.4311H53.4106C52.9917 20.4244 52.7191 20.092 52.7989 19.6797ZM58.8164 9.55973C58.7366 9.97198 59.0092 10.3044 59.4214 10.3044H62.3471C63.3444 10.3044 64.1955 10.0584 64.8937 9.55973C65.5918 9.06105 66.024 8.38283 66.1836 7.53174C66.3365 6.7139 66.1504 6.05564 65.6251 5.55695C65.0998 5.05826 64.3485 4.81225 63.371 4.81225H60.4454C60.0332 4.81225 59.6342 5.1447 59.5611 5.55695L58.8164 9.55973Z" fill="#14155E"/>
<path d="M69.2236 14.7594L71.8567 13.9282C72.2689 13.8019 72.6479 14.0014 72.7144 14.387C72.8474 15.1849 73.1799 15.8764 73.7118 16.4549C74.39 17.1996 75.4007 17.5719 76.7438 17.5719C77.9739 17.5719 78.9447 17.3525 79.6561 16.9203C80.3609 16.4881 80.7865 15.8897 80.9261 15.1251C81.1588 13.875 80.2678 13.0971 78.2598 12.7846L75.9526 12.4588C72.0495 11.8936 70.4005 9.99193 71.0056 6.74715C71.3114 5.09816 72.2423 3.72179 73.7982 2.61138C75.3541 1.50762 77.2957 0.949097 79.6162 0.949097C81.8304 0.949097 83.5193 1.41454 84.6895 2.35207C85.6603 3.13002 86.292 4.10744 86.5845 5.29099C86.6843 5.68993 86.3917 6.14872 85.9595 6.28836L83.3929 7.1328C83.0073 7.25913 82.6349 7.08625 82.5418 6.73385C82.1097 5.07156 80.9327 4.24042 79.0045 4.24042C77.934 4.24042 77.0896 4.45984 76.4645 4.89204C75.8395 5.32423 75.4605 5.88941 75.3342 6.58092C75.1281 7.70462 75.8129 8.38284 77.4021 8.62221L79.7093 8.94801C81.7772 9.24057 83.2998 9.87889 84.2706 10.8763C85.248 11.8736 85.5805 13.1968 85.2746 14.8458C84.9488 16.6078 83.9914 18.044 82.4022 19.1677C80.8131 20.2914 78.7252 20.8566 76.1321 20.8566C73.7051 20.8566 71.8434 20.3114 70.5601 19.2276C69.4563 18.2901 68.7981 17.1132 68.5853 15.6969C68.5188 15.3112 68.8114 14.8923 69.2236 14.7594Z" fill="#14155E"/>
</svg>
