<svg width="179" height="49" viewBox="0 0 179 49" fill="none" xmlns="http://www.w3.org/2000/svg">
<path d="M20.76 39.48C16.7867 39.48 13.68 38.3733 11.44 36.16C9.2 33.9467 8.08 30.7867 8.08 26.68V11H14.56V26.44C14.56 29.1067 15.1067 31.0267 16.2 32.2C17.2933 33.3733 18.8267 33.96 20.8 33.96C22.7733 33.96 24.3067 33.3733 25.4 32.2C26.4933 31.0267 27.04 29.1067 27.04 26.44V11H33.44V26.68C33.44 30.7867 32.32 33.9467 30.08 36.16C27.84 38.3733 24.7333 39.48 20.76 39.48ZM39.8434 39V11H45.2034L61.7234 31.16H59.1234V11H65.5234V39H60.2034L43.6434 18.84H46.2434V39H39.8434ZM72.1481 39V11H84.2681C86.7748 11 88.9348 11.4133 90.7481 12.24C92.5615 13.04 93.9615 14.2 94.9481 15.72C95.9348 17.24 96.4281 19.0533 96.4281 21.16C96.4281 23.24 95.9348 25.04 94.9481 26.56C93.9615 28.08 92.5615 29.2533 90.7481 30.08C88.9348 30.88 86.7748 31.28 84.2681 31.28H75.7481L78.6281 28.36V39H72.1481ZM78.6281 29.08L75.7481 26H83.9081C85.9081 26 87.4015 25.5733 88.3881 24.72C89.3748 23.8667 89.8681 22.68 89.8681 21.16C89.8681 19.6133 89.3748 18.4133 88.3881 17.56C87.4015 16.7067 85.9081 16.28 83.9081 16.28H75.7481L78.6281 13.2V29.08ZM95.9681 39L108.448 11H114.848L127.368 39H120.568L110.328 14.28H112.888L102.608 39H95.9681ZM102.208 33L103.928 28.08H118.328L120.088 33H102.208ZM130.273 39V11H136.753V39H130.273ZM143.398 39V11H156.118C159.158 11 161.838 11.5867 164.158 12.76C166.478 13.9067 168.291 15.52 169.598 17.6C170.905 19.68 171.558 22.1467 171.558 25C171.558 27.8267 170.905 30.2933 169.598 32.4C168.291 34.48 166.478 36.1067 164.158 37.28C161.838 38.4267 159.158 39 156.118 39H143.398ZM149.878 33.68H155.798C157.665 33.68 159.278 33.3333 160.638 32.64C162.025 31.92 163.091 30.9067 163.838 29.6C164.611 28.2933 164.998 26.76 164.998 25C164.998 23.2133 164.611 21.68 163.838 20.4C163.091 19.0933 162.025 18.0933 160.638 17.4C159.278 16.68 157.665 16.32 155.798 16.32H149.878V33.68Z" fill="#9EBBE4"/>
</svg>
