<svg width="24" height="24" viewBox="0 0 24 24" fill="none" xmlns="http://www.w3.org/2000/svg">
<path d="M11.4652 14.7608C11.8789 14.78 12.2299 14.4602 12.2492 14.0464C12.2684 13.6327 11.9486 13.2817 11.5349 13.2624L11.4652 14.7608ZM5.57757 15.4816L5.19387 14.8372L5.19387 14.8372L5.57757 15.4816ZM2.71266 20.1966L2.19532 20.7396L2.19534 20.7396L2.71266 20.1966ZM12 22.75C12.4142 22.75 12.75 22.4142 12.75 22C12.75 21.5858 12.4142 21.25 12 21.25V22.75ZM17.25 22C17.25 22.4142 17.5858 22.75 18 22.75C18.4142 22.75 18.75 22.4142 18.75 22H17.25ZM20.7738 15.7169L20.1573 16.144L20.1573 16.144L20.7738 15.7169ZM15.2262 15.7169L15.8427 16.144L15.8427 16.144L15.2262 15.7169ZM18.75 13C18.75 12.5858 18.4142 12.25 18 12.25C17.5858 12.25 17.25 12.5858 17.25 13H18.75ZM22.4056 15.5595C22.754 15.3355 22.8549 14.8714 22.6309 14.523C22.4069 14.1746 21.9428 14.0737 21.5944 14.2977L22.4056 15.5595ZM13.5948 19.4405C13.2464 19.6645 13.1455 20.1285 13.3695 20.477C13.5935 20.8254 14.0576 20.9263 14.406 20.7023L13.5948 19.4405ZM14.4056 14.2977C14.0572 14.0737 13.5931 14.1746 13.3691 14.523C13.1451 14.8714 13.246 15.3355 13.5944 15.5595L14.4056 14.2977ZM21.594 20.7023C21.9424 20.9263 22.4065 20.8254 22.6305 20.477C22.8545 20.1286 22.7536 19.6645 22.4052 19.4405L21.594 20.7023ZM11.5349 13.2624C9.34651 13.1606 7.13015 13.6843 5.19387 14.8372L5.96127 16.126C7.63653 15.1285 9.56026 14.6722 11.4652 14.7608L11.5349 13.2624ZM5.19387 14.8372C4.56785 15.2099 3.14934 15.9244 2.24272 16.8118C1.78105 17.2637 1.3424 17.8592 1.26265 18.5888C1.17785 19.3646 1.51631 20.0927 2.19532 20.7396L3.23 19.6536C2.77937 19.2243 2.73427 18.9301 2.75377 18.7518C2.77833 18.5271 2.93184 18.2363 3.29197 17.8838C4.02893 17.1624 5.17252 16.5957 5.96128 16.126L5.19387 14.8372ZM2.19534 20.7396C3.36678 21.8556 4.77256 22.75 6.59087 22.75V21.25C5.31842 21.25 4.26584 20.6404 3.22998 19.6536L2.19534 20.7396ZM6.59087 22.75H12V21.25H6.59087V22.75ZM14.75 6.5C14.75 8.57107 13.0711 10.25 11 10.25V11.75C13.8995 11.75 16.25 9.39949 16.25 6.5H14.75ZM11 10.25C8.92893 10.25 7.25 8.57107 7.25 6.5H5.75C5.75 9.39949 8.10051 11.75 11 11.75V10.25ZM7.25 6.5C7.25 4.42893 8.92893 2.75 11 2.75V1.25C8.10051 1.25 5.75 3.60051 5.75 6.5H7.25ZM11 2.75C13.0711 2.75 14.75 4.42893 14.75 6.5H16.25C16.25 3.60051 13.8995 1.25 11 1.25V2.75ZM17.25 20.7143V22H18.75V20.7143H17.25ZM18 19.9643C17.0922 19.9643 16.3022 19.5192 15.8428 18.8562L14.6098 19.7104C15.346 20.773 16.5942 21.4643 18 21.4643V19.9643ZM18 21.4643C19.4058 21.4643 20.654 20.773 21.3902 19.7104L20.1572 18.8562C19.6978 19.5192 18.9078 19.9643 18 19.9643V21.4643ZM18 15.0357C18.9079 15.0357 19.698 15.4809 20.1573 16.144L21.3903 15.2898C20.6542 14.2271 19.4059 13.5357 18 13.5357V15.0357ZM18 13.5357C16.5941 13.5357 15.3458 14.2271 14.6097 15.2898L15.8427 16.144C16.302 15.4809 17.0921 15.0357 18 15.0357V13.5357ZM18.75 14.2857V13H17.25V14.2857H18.75ZM21.5944 14.2977L20.3682 15.086L21.1794 16.3478L22.4056 15.5595L21.5944 14.2977ZM14.406 20.7023L15.6319 19.9142L14.8207 18.6524L13.5948 19.4405L14.406 20.7023ZM13.5944 15.5595L14.8206 16.3478L15.6318 15.086L14.4056 14.2977L13.5944 15.5595ZM22.4052 19.4405L21.1793 18.6524L20.3681 19.9142L21.594 20.7023L22.4052 19.4405ZM20.1573 16.144C20.4276 16.5342 20.5833 16.9994 20.5833 17.5H22.0833C22.0833 16.6812 21.827 15.92 21.3903 15.2898L20.1573 16.144ZM20.5833 17.5C20.5833 18.0005 20.4276 18.4659 20.1572 18.8562L21.3902 19.7104C21.8268 19.0801 22.0833 18.3189 22.0833 17.5H20.5833ZM14.6097 15.2898C14.173 15.92 13.9167 16.6812 13.9167 17.5H15.4167C15.4167 16.9994 15.5724 16.5342 15.8427 16.144L14.6097 15.2898ZM13.9167 17.5C13.9167 18.3189 14.1732 19.0801 14.6098 19.7104L15.8428 18.8562C15.5724 18.4659 15.4167 18.0005 15.4167 17.5H13.9167Z" fill="black"/>
</svg>
