<svg width="16" height="16" viewBox="0 0 16 16" fill="none" xmlns="http://www.w3.org/2000/svg">
<path fill-rule="evenodd" clipRule="evenodd" d="M1.14267 7.99942C1.14267 11.7708 4.22867 14.8561 8 14.8561C11.7713 14.8561 14.8573 11.7708 14.8573 8.00009C14.8573 4.22676 11.7713 1.14209 8 1.14209C4.22867 1.14209 1.14267 4.22676 1.14267 7.99942ZM2.286 7.99942C2.286 4.85609 4.85734 2.28476 8 2.28476C11.1427 2.28476 13.7147 4.85609 13.7147 7.99942C13.7147 11.1421 11.1427 13.7134 8 13.7134C4.85734 13.7134 2.286 11.1421 2.286 7.99942ZM8.57134 4.57142H7.42867V9.14342H8.57134V4.57142ZM8 12.0008C8.11456 12.004 8.22859 11.9841 8.33536 11.9425C8.44213 11.9009 8.53947 11.8383 8.62162 11.7584C8.70378 11.6785 8.76908 11.5829 8.81367 11.4774C8.85827 11.3718 8.88124 11.2584 8.88124 11.1438C8.88124 11.0292 8.85827 10.9157 8.81367 10.8102C8.76908 10.7046 8.70378 10.609 8.62162 10.5291C8.53947 10.4492 8.44213 10.3866 8.33536 10.345C8.22859 10.3034 8.11456 10.2836 8 10.2868C7.77865 10.2955 7.56927 10.3896 7.41574 10.5493C7.26222 10.709 7.17647 10.9219 7.17647 11.1434C7.17647 11.3649 7.26222 11.5779 7.41574 11.7376C7.56927 11.8973 7.77865 11.992 8 12.0008Z" fill="#A8200D"/>
</svg>
