<svg width="118" height="64" viewBox="0 0 118 64" fill="none" xmlns="http://www.w3.org/2000/svg">
<rect x="0.5" y="0.5" width="117" height="63" rx="4.5" stroke="#9747FF" stroke-dasharray="10 5"/>
<path fillRule="evenodd" clipRule="evenodd" d="M39.8839 24.1161C40.372 24.6043 40.372 25.3957 39.8839 25.8839L25.8839 39.8839C25.3957 40.372 24.6043 40.372 24.1161 39.8839C23.628 39.3957 23.628 38.6043 24.1161 38.1161L38.1161 24.1161C38.6043 23.628 39.3957 23.628 39.8839 24.1161Z" fill="black"/>
<path fillRule="evenodd" clipRule="evenodd" d="M24.1161 24.1161C24.6043 23.628 25.3957 23.628 25.8839 24.1161L39.8839 38.1161C40.372 38.6043 40.372 39.3957 39.8839 39.8839C39.3957 40.372 38.6043 40.372 38.1161 39.8839L24.1161 25.8839C23.628 25.3957 23.628 24.6043 24.1161 24.1161Z" fill="black"/>
<rect x="62" y="8" width="48" height="48" rx="24" fill="#14155E" fill-opacity="0.08"/>
<path fillRule="evenodd" clipRule="evenodd" d="M93.8839 24.1161C94.372 24.6043 94.372 25.3957 93.8839 25.8839L79.8839 39.8839C79.3957 40.372 78.6043 40.372 78.1161 39.8839C77.628 39.3957 77.628 38.6043 78.1161 38.1161L92.1161 24.1161C92.6043 23.628 93.3957 23.628 93.8839 24.1161Z" fill="black"/>
<path fillRule="evenodd" clipRule="evenodd" d="M78.1161 24.1161C78.6043 23.628 79.3957 23.628 79.8839 24.1161L93.8839 38.1161C94.372 38.6043 94.372 39.3957 93.8839 39.8839C93.3957 40.372 92.6043 40.372 92.1161 39.8839L78.1161 25.8839C77.628 25.3957 77.628 24.6043 78.1161 24.1161Z" fill="black"/>
</svg>
