<svg width="68" height="89" viewBox="0 0 68 89" fill="none" xmlns="http://www.w3.org/2000/svg">
<g clip-path="url(#clip0_6530_70444)">
<path d="M-125.648 76.0412L-192.656 104.902V109.812H71.6078V0.964844L20.0081 33.5053C17.5027 35.0852 14.5009 35.7602 11.5313 35.4114L-17.5377 31.9975C-20.545 31.6443 -23.5836 32.341 -26.106 33.9618L-95.3169 78.4338C-98.9556 80.7719 -103.583 81.139 -107.567 79.4056L-115.26 76.06C-118.562 74.6237 -122.34 74.6167 -125.648 76.0412Z" fill="#1DD75B" fill-opacity="0.1"/>
<path d="M-192.656 104.878L-125.648 76.0177C-122.34 74.5933 -118.562 74.6003 -115.26 76.0366L-107.567 79.3822C-103.583 81.1155 -98.9556 80.7485 -95.3169 78.4103L-26.106 33.9383C-23.5836 32.3175 -20.545 31.6209 -17.5377 31.9741L11.5313 35.388C14.5009 35.7368 17.5027 35.0618 20.0081 33.4818L71.6078 0.941406" stroke="#1DD75B" stroke-width="0.624433" stroke-linecap="round"/>
</g>
<defs>
<clipPath id="clip0_6530_70444">
<rect width="67" height="89" fill="white" transform="translate(0.5)"/>
</clipPath>
</defs>
</svg>
