<svg width="24" height="24" viewBox="0 0 24 24" fill="none" xmlns="http://www.w3.org/2000/svg">
<path d="M7.46488 12.9745C7.17465 13.27 7.17897 13.7449 7.47451 14.0351C7.77005 14.3253 8.2449 14.321 8.53512 14.0255L7.46488 12.9745ZM15.4649 14.0255C15.7551 14.321 16.2299 14.3253 16.5255 14.0351C16.821 13.7449 16.8253 13.2701 16.5351 12.9745L15.4649 14.0255ZM2.75 12C2.75 6.89137 6.89137 2.75 12 2.75V1.25C6.06294 1.25 1.25 6.06294 1.25 12H2.75ZM12 2.75C17.1086 2.75 21.25 6.89137 21.25 12H22.75C22.75 6.06294 17.9371 1.25 12 1.25V2.75ZM21.25 12C21.25 17.1086 17.1086 21.25 12 21.25V22.75C17.9371 22.75 22.75 17.9371 22.75 12H21.25ZM12 21.25C6.89137 21.25 2.75 17.1086 2.75 12H1.25C1.25 17.9371 6.06294 22.75 12 22.75V21.25ZM8 13.5C8.53512 14.0255 8.53509 14.0255 8.53507 14.0256C8.53507 14.0255 8.53506 14.0256 8.53507 14.0255C8.5351 14.0255 8.53518 14.0254 8.53529 14.0253C8.53552 14.0251 8.53593 14.0247 8.53652 14.0241C8.53769 14.0229 8.53955 14.021 8.54209 14.0184C8.54718 14.0133 8.55498 14.0054 8.56534 13.995C8.58607 13.9741 8.61705 13.9431 8.6571 13.9033C8.73722 13.8237 8.85348 13.7094 8.99647 13.572C9.28313 13.2965 9.67409 12.9312 10.095 12.5676C10.519 12.2013 10.9587 11.8497 11.3446 11.5939C11.5379 11.4658 11.7028 11.3719 11.8345 11.3123C11.9794 11.2468 12.0257 11.25 12 11.25V9.75C11.7108 9.75 11.4344 9.84699 11.2165 9.94552C10.9854 10.05 10.7471 10.1904 10.516 10.3436C10.0532 10.6503 9.5587 11.0487 9.11448 11.4324C8.66716 11.8188 8.25574 12.2035 7.95709 12.4905C7.80743 12.6343 7.68529 12.7544 7.60019 12.8389C7.55763 12.8812 7.52428 12.9146 7.50134 12.9377C7.48987 12.9492 7.481 12.9582 7.47487 12.9644C7.47181 12.9675 7.46943 12.9699 7.46776 12.9716C7.46692 12.9724 7.46626 12.9731 7.46578 12.9736C7.46554 12.9738 7.46535 12.974 7.46519 12.9742C7.46512 12.9743 7.46504 12.9743 7.465 12.9744C7.46493 12.9745 7.46488 12.9745 8 13.5ZM12 11.25C11.9743 11.25 12.0206 11.2468 12.1655 11.3123C12.2973 11.3719 12.4621 11.4658 12.6554 11.5939C13.0414 11.8497 13.481 12.2013 13.905 12.5676C14.3259 12.9312 14.7169 13.2965 15.0035 13.572C15.1465 13.7094 15.2628 13.8237 15.3429 13.9033C15.3829 13.9431 15.4139 13.9741 15.4346 13.995C15.445 14.0054 15.4528 14.0133 15.4579 14.0184C15.4604 14.021 15.4623 14.0229 15.4635 14.0241C15.4641 14.0247 15.4645 14.0251 15.4647 14.0253C15.4648 14.0254 15.4649 14.0255 15.4649 14.0255C15.4649 14.0255 15.4649 14.0255 15.4649 14.0255C15.4649 14.0255 15.4649 14.0255 16 13.5C16.5351 12.9745 16.5351 12.9745 16.535 12.9744C16.535 12.9744 16.5349 12.9743 16.5348 12.9742C16.5347 12.974 16.5345 12.9738 16.5342 12.9736C16.5337 12.9731 16.5331 12.9724 16.5322 12.9716C16.5306 12.9699 16.5282 12.9675 16.5251 12.9644C16.519 12.9582 16.5101 12.9492 16.4987 12.9377C16.4757 12.9146 16.4424 12.8812 16.3998 12.8389C16.3147 12.7544 16.1926 12.6343 16.0429 12.4905C15.7443 12.2035 15.3329 11.8188 14.8856 11.4324C14.4413 11.0487 13.9468 10.6503 13.484 10.3436C13.2529 10.1904 13.0146 10.05 12.7835 9.94551C12.5656 9.84698 12.2892 9.75 12 9.75V11.25Z" fill="white"/>
</svg>
