<svg width="68" height="89" viewBox="0 0 68 89" fill="none" xmlns="http://www.w3.org/2000/svg">
<g clip-path="url(#clip0_6530_70461)">
<path d="M36.2987 44.0729L-112.578 -49.7266V189.837H479.785V162.656L363.834 88.0486C356.984 83.6406 348.505 82.3202 340.579 84.4265L277.51 101.184C271.405 102.806 264.918 102.408 259.072 100.053L103.798 37.4936C96.2907 34.4689 87.8096 34.7021 80.4905 38.1343L64.1939 45.7766C55.2287 49.9809 44.6507 49.335 36.2987 44.0729Z" fill="#DE3B40" fill-opacity="0.1"/>
<path d="M-112.578 -49.7656L36.2987 44.0338C44.6506 49.2959 55.2287 49.9418 64.1939 45.7375L80.4905 38.0952C87.8096 34.663 96.2907 34.4299 103.798 37.4546L259.072 100.013C264.918 102.369 271.405 102.767 277.51 101.145L340.579 84.3875C348.505 82.2811 356.984 83.6015 363.834 88.0095L479.785 162.617" stroke="#DE3B40" stroke-width="1.40287" stroke-linecap="round"/>
</g>
<defs>
<clipPath id="clip0_6530_70461">
<rect width="67" height="89" fill="white" transform="translate(0.5)"/>
</clipPath>
</defs>
</svg>
