<svg width="41" height="32" viewBox="0 0 41 32" fill="none" xmlns="http://www.w3.org/2000/svg">
<path d="M26.7366 6.76108H26.7632L26.9827 6.49512C26.8962 6.58156 26.8164 6.67464 26.7366 6.76108Z" fill="black"/>
<path d="M31.4442 7.87169L27.4281 29.4814C27.1888 30.7713 25.9454 31.8152 24.6621 31.8152H1.94197C0.652036 31.8152 -0.199054 30.7713 0.0403153 29.4814L4.26252 6.76793C4.50189 5.478 5.74528 4.43408 7.02856 4.43408H29.1104C28.379 5.0724 27.6741 5.75061 27.0092 6.46207L26.9826 6.48867L26.976 6.49532C26.8962 6.58175 26.8098 6.66819 26.73 6.76128H6.60302C6.59637 6.76128 6.59637 6.76128 6.59637 6.76793L2.36751 29.4814C2.36751 29.488 2.36751 29.488 2.36751 29.488H25.0876C25.0876 29.488 25.0943 29.488 25.0943 29.4814L28.3657 11.8878L29.3364 10.5978L29.3431 10.5845L30.899 8.51C31.0785 8.29723 31.258 8.08446 31.4442 7.87169Z" fill="#14155E"/>
<path d="M26.9827 6.49512L26.7632 6.76108H26.7366C26.8164 6.67464 26.8962 6.58156 26.9827 6.49512Z" fill="black"/>
<path d="M28.6981 10.1323L28.6649 10.1789C28.6782 10.1656 28.6848 10.1456 28.6981 10.1323Z" fill="#14155E"/>
<path d="M28.6985 10.1323L28.6851 10.2127L28.6516 10.1926L28.665 10.1725C28.6784 10.1658 28.6851 10.1457 28.6985 10.1323Z" fill="#14155E"/>
<path d="M28.665 10.1794L28.6516 10.1995L28.6851 10.2196L28.6985 10.1392C28.6851 10.1459 28.6784 10.166 28.665 10.1794Z" fill="#14155E"/>
<path d="M40.2942 0.225098C38.3992 1.11608 36.5906 2.22649 34.9217 3.51642C33.7714 4.40741 32.6876 5.38483 31.6836 6.43539C31.1915 6.94738 30.7195 7.47931 30.2673 8.03119C30.2607 8.03784 30.254 8.04449 30.254 8.05113C30.1077 8.23066 29.9615 8.41019 29.8152 8.59636C29.7553 8.67615 29.6955 8.74929 29.6356 8.82908C29.4428 9.08175 29.25 9.33442 29.0705 9.59373C29.0106 9.68017 28.9441 9.76661 28.8843 9.8597C28.8643 9.89295 28.8377 9.91954 28.8178 9.95279C28.7779 10.0126 28.738 10.0658 28.6981 10.1257C28.6848 10.139 28.6782 10.1523 28.6649 10.1722L28.6516 10.1922L20.5596 20.9372L18.5582 23.6168L18.4917 23.7099L17.1552 25.4918C16.6765 25.7977 16.1246 25.9772 15.5594 25.9772C15.3533 25.9772 15.1605 25.9506 14.9809 25.9107C14.1165 25.698 13.5248 25.0064 13.4383 24.1155L13.3984 24.162C12.2282 20.0129 9.68157 16.5687 6.15088 14.308C10.1404 15.1258 13.4982 17.094 15.9451 19.8733C16.0514 19.993 16.1578 20.1193 16.2576 20.239C16.3573 20.3587 16.5568 20.3321 16.6765 20.1925L25.2007 9.87965L25.2206 9.85305L27.5944 6.98062C27.601 6.97397 27.6143 6.96068 27.621 6.95403L27.8071 6.75455C28.5784 5.95001 29.3963 5.192 30.2474 4.4872C31.1583 3.72919 32.1158 3.03103 33.1131 2.39272C33.9376 1.86743 34.7821 1.38205 35.6465 0.943205C37.1558 0.331484 38.745 0.338133 40.2942 0.225098Z" fill="#FFD13A"/>
</svg>
