<svg width="20" height="20" viewBox="0 0 20 20" fill="none" xmlns="http://www.w3.org/2000/svg">
<path d="M9.249 2.5C6.20817 2.50548 4.61582 2.58014 3.59819 3.59793C2.5 4.6963 2.5 6.4641 2.5 9.99965C2.5 13.5352 2.5 15.3031 3.59819 16.4014C4.69638 17.4998 6.4639 17.4998 9.99892 17.4998C13.5339 17.4998 15.3014 17.4998 16.3997 16.4014C17.4173 15.3837 17.4919 13.791 17.4974 10.7497" stroke="black" stroke-width="1.5" stroke-linecap="round" stroke-linejoin="round"/>
<path d="M17.1337 2.91318L9.21094 10.882M17.1337 2.91318C16.7221 2.50099 13.949 2.53941 13.3628 2.54775M17.1337 2.91318C17.5454 3.32535 17.507 6.10201 17.4987 6.68902" stroke="black" stroke-width="1.5" stroke-linecap="round" stroke-linejoin="round"/>
</svg>
