<svg width="24" height="25" viewBox="0 0 24 25" fill="none" xmlns="http://www.w3.org/2000/svg">
<circle cx="1.14286" cy="1.14286" r="1.14286" transform="matrix(-1 0 0 1 13.1426 4.5)" fill="#14155E"/>
<circle cx="1.14286" cy="1.14286" r="1.14286" transform="matrix(-1 0 0 1 13.1426 18.2148)" fill="#14155E"/>
<circle cx="1.14286" cy="1.14286" r="1.14286" transform="matrix(4.37114e-08 1 1 -4.37114e-08 4 11.3574)" fill="#14155E"/>
<circle cx="1.14286" cy="1.14286" r="1.14286" transform="matrix(4.37114e-08 1 1 -4.37114e-08 17.7139 11.3574)" fill="#14155E"/>
<circle cx="1.14286" cy="1.14286" r="1.14286" transform="matrix(0.707107 0.707107 0.707107 -0.707107 5.53516 17.3496)" fill="#14155E"/>
<circle cx="1.14286" cy="1.14286" r="1.14286" transform="matrix(0.707107 0.707107 0.707107 -0.707107 15.2324 7.65039)" fill="#14155E"/>
<circle cx="1.14286" cy="1.14286" r="1.14286" transform="matrix(0.707107 -0.707107 -0.707107 -0.707107 16.8486 18.9648)" fill="#14155E"/>
<circle cx="1.14286" cy="1.14286" r="1.14286" transform="matrix(0.707107 -0.707107 -0.707107 -0.707107 7.15137 9.26758)" fill="#14155E"/>
<circle cx="1.14286" cy="1.14286" r="1.14286" transform="matrix(0.707107 -0.707107 -0.707107 -0.707107 16.8486 18.9648)" fill="#14155E"/>
<circle cx="1.14286" cy="1.14286" r="1.14286" transform="matrix(0.707107 -0.707107 -0.707107 -0.707107 7.15137 9.26758)" fill="#14155E"/>
</svg>
