<svg width="20" height="20" viewBox="0 0 20 20" fill="none" xmlns="http://www.w3.org/2000/svg">
<path d="M17.5 5.41797C17.5 6.79868 16.3807 7.91797 15 7.91797C13.6192 7.91797 12.5 6.79868 12.5 5.41797C12.5 4.03726 13.6192 2.91797 15 2.91797C16.3807 2.91797 17.5 4.03726 17.5 5.41797Z" stroke="#141B34" stroke-width="1.5" stroke-linejoin="round"/>
<path d="M7.5 10C7.5 11.3807 6.38071 12.5 5 12.5C3.61929 12.5 2.5 11.3807 2.5 10C2.5 8.61925 3.61929 7.5 5 7.5C6.38071 7.5 7.5 8.61925 7.5 10Z" stroke="#141B34" stroke-width="1.5" stroke-linejoin="round"/>
<path d="M17.5 14.582C17.5 15.9628 16.3807 17.082 15 17.082C13.6192 17.082 12.5 15.9628 12.5 14.582C12.5 13.2013 13.6192 12.082 15 12.082C16.3807 12.082 17.5 13.2013 17.5 14.582Z" stroke="#141B34" stroke-width="1.5" stroke-linejoin="round"/>
<path d="M7.27344 8.95661L12.6901 6.45703M7.27344 11.0404L12.6901 13.5399" stroke="#141B34" stroke-width="1.5" stroke-linejoin="round"/>
</svg>
