<svg width="68" height="89" viewBox="0 0 68 89" fill="none" xmlns="http://www.w3.org/2000/svg">
<g clip-path="url(#clip0_6530_70427)">
<path d="M1.35204 55.0412L-65.6562 83.9016V88.812H198.608V-20.0352L147.008 12.5053C144.503 14.0852 141.501 14.7602 138.531 14.4114L109.462 10.9975C106.455 10.6443 103.416 11.341 100.894 12.9618L31.6831 57.4338C28.0444 59.7719 23.4172 60.139 19.4325 58.4056L11.7401 55.06C8.43846 53.6237 4.65958 53.6167 1.35204 55.0412Z" fill="#1DD75B" fill-opacity="0.1"/>
<path d="M-65.6562 83.8782L1.35204 55.0177C4.65958 53.5933 8.43846 53.6003 11.7401 55.0366L19.4325 58.3822C23.4172 60.1155 28.0444 59.7485 31.6831 57.4103L100.894 12.9383C103.416 11.3175 106.455 10.6209 109.462 10.9741L138.531 14.388C141.501 14.7368 144.503 14.0618 147.008 12.4818L198.608 -20.0586" stroke="#1DD75B" stroke-width="0.624433" stroke-linecap="round"/>
</g>
<defs>
<clipPath id="clip0_6530_70427">
<rect width="67" height="89" fill="white" transform="translate(0.5)"/>
</clipPath>
</defs>
</svg>
