<svg width="16" height="16" viewBox="0 0 16 16" fill="none" xmlns="http://www.w3.org/2000/svg">
<path d="M14.3653 7.36203C14.5679 7.64623 14.6693 7.78836 14.6693 7.9987C14.6693 8.20903 14.5679 8.35116 14.3653 8.63536C13.4545 9.91243 11.1287 12.6654 8.0026 12.6654C4.87646 12.6654 2.55067 9.91243 1.63996 8.63536C1.43728 8.35116 1.33594 8.20903 1.33594 7.9987C1.33594 7.78836 1.43728 7.64623 1.63996 7.36203C2.55067 6.08499 4.87646 3.33203 8.0026 3.33203C11.1287 3.33203 13.4545 6.08499 14.3653 7.36203Z" stroke="#868687" stroke-width="1.5"/>
<path d="M10.0026 7.9987C10.0026 6.8941 9.1072 5.9987 8.0026 5.9987C6.898 5.9987 6.0026 6.8941 6.0026 7.9987C6.0026 9.1033 6.898 9.9987 8.0026 9.9987C9.1072 9.9987 10.0026 9.1033 10.0026 7.9987Z" stroke="#868687" stroke-width="1.5"/>
</svg>
